<svg width="2040" height="1300" viewBox="0 0 2040 1300" fill="none" xmlns="http://www.w3.org/2000/svg">
<rect x="2" width="267" height="1300" fill="#EDEDED"/>
<path d="M853.992 1100C1087.96 1171.25 1397.14 1217.66 1788 1223H1938H2040V1100H1938H853.992Z" fill="#F2F2F2"/>
<path d="M259.998 1100H853.992C-225.877 771.161 299.422 -86.7676 1788 122L1790.17 122.304C1830.14 127.908 1875.63 134.285 1938 150C1956 154.535 2011 163 2040 175V0H2V618C65.6305 844.028 127.899 943.683 259.998 1100Z" fill="#F2F2F2"/>
<path d="M702 1300C582.39 1282 387 1209 259.998 1100H104H2V1300H104H702Z" fill="#F2F2F2"/>
<path d="M0 496V0H810.77L0 496Z" fill="#EDEDED"/>
</svg>
