<svg width="20" height="32" viewBox="0 0 20 32" fill="none" xmlns="http://www.w3.org/2000/svg">
<path d="M20 3.5847V0.336813C20 0.0553014 19.6765 -0.10016 19.458 0.072108L0.516865 14.8662C0.355934 14.9913 0.225715 15.1516 0.136139 15.3347C0.0465641 15.5179 0 15.719 0 15.9229C0 16.1268 0.0465641 16.3279 0.136139 16.5111C0.225715 16.6942 0.355934 16.8545 0.516865 16.9796L19.458 31.7737C19.6807 31.946 20 31.7905 20 31.509V28.2611C20 28.0552 19.9034 27.8577 19.7437 27.7317L4.61769 15.925L19.7437 4.11411C19.9034 3.98806 20 3.79058 20 3.5847Z" fill="#586371"/>
</svg>
