<svg width="32" height="32" viewBox="0 0 32 32" fill="none" xmlns="http://www.w3.org/2000/svg">
<path d="M16 0C7.16429 0 0 7.16429 0 16C0 24.8357 7.16429 32 16 32C24.8357 32 32 24.8357 32 16C32 7.16429 24.8357 0 16 0ZM16 29.2857C8.66429 29.2857 2.71429 23.3357 2.71429 16C2.71429 8.66429 8.66429 2.71429 16 2.71429C23.3357 2.71429 29.2857 8.66429 29.2857 16C29.2857 23.3357 23.3357 29.2857 16 29.2857ZM16.2 10.2607C18.0929 10.2607 19.3786 11.4679 19.5214 13.2393C19.5321 13.3893 19.6571 13.5036 19.8071 13.5036H21.8321C21.925 13.5036 22 13.4286 22 13.3357C22 10.2393 19.5571 8.07143 16.1893 8.07143C12.2643 8.07143 10 10.7214 10 15.1V16.9679C10 21.3143 12.2643 23.9286 16.1893 23.9286C19.5464 23.9286 22 21.8286 22 18.8786C22 18.7857 21.925 18.7107 21.8321 18.7107H19.8036C19.6536 18.7107 19.5321 18.825 19.5179 18.9714C19.3679 20.6179 18.0857 21.75 16.1964 21.75C13.8643 21.75 12.55 20.0393 12.55 16.9786V15.1C12.5536 11.9929 13.8714 10.2607 16.2 10.2607V10.2607Z" fill="#1F2833"/>
</svg>
