<svg width="60" height="60" viewBox="0 0 60 60" fill="none" xmlns="http://www.w3.org/2000/svg">
<circle cx="30" cy="30" r="30" fill="url(#paint0_radial)"/>
<path d="M47.385 31.2439L40.6174 38.8537C40.2073 39.1854 39.7117 39.3512 39.1306 39.3512C38.5496 39.3512 38.054 39.1805 37.6438 38.839C37.2336 38.4976 37.0286 38.078 37.0286 37.5805C37.0286 37.0829 37.2336 36.6585 37.6438 36.3073L43.2835 29.9854L37.6438 23.6634C37.2336 23.3122 37.0286 22.8927 37.0286 22.4049C37.0286 21.9171 37.2336 21.4976 37.6438 21.1463C38.054 20.7951 38.5496 20.6195 39.1306 20.6195C39.7117 20.6195 40.2073 20.7951 40.6174 21.1463L47.385 28.7268C47.7952 29.078 48.0002 29.4976 48.0002 29.9854C48.0002 30.4732 47.7952 30.8927 47.385 31.2439ZM30.5002 43.1268C30.4775 43.1854 30.4433 43.2976 30.3977 43.4634C30.3521 43.6293 30.318 43.7415 30.2952 43.8L30.1755 44.1073L30.0046 44.4146L29.7483 44.6488L29.3894 44.8537L28.928 44.9561L28.3127 45C27.7659 45 27.2418 44.7561 26.7405 44.2683C26.2392 43.7805 26.0569 43.3122 26.1936 42.8634L30.5002 16.8732C30.8876 15.6244 31.9814 15 33.7815 15C34.2828 15 34.6189 15.2293 34.7898 15.6878C34.9607 16.1463 34.9664 16.6293 34.8069 17.1366L30.5002 43.1268ZM23.3567 38.839C22.9465 39.1805 22.4509 39.3512 21.8699 39.3512C21.2888 39.3512 20.7932 39.1854 20.3831 38.8537L13.6155 31.2439C13.2053 30.8927 13.0002 30.4732 13.0002 29.9854C13.0002 29.4976 13.2053 29.078 13.6155 28.7268L20.3831 21.1463C20.7932 20.7951 21.2888 20.6195 21.8699 20.6195C22.4509 20.6195 22.9465 20.7951 23.3567 21.1463C23.7668 21.4976 23.9719 21.9171 23.9719 22.4049C23.9719 22.8927 23.7668 23.3122 23.3567 23.6634L17.717 29.9854L23.3567 36.3073C23.7668 36.6585 23.9719 37.0829 23.9719 37.5805C23.9719 38.078 23.7668 38.4976 23.3567 38.839Z" fill="#1F2833"/>
<defs>
<radialGradient id="paint0_radial" cx="0" cy="0" r="1" gradientUnits="userSpaceOnUse" gradientTransform="translate(36 17) rotate(109.502) scale(50.9215)">
<stop offset="0.497917" stop-color="#49F1C1"/>
<stop offset="1" stop-color="#42B091"/>
</radialGradient>
</defs>
</svg>
