<svg width="200" height="200" viewBox="0 0 200 200" fill="none" xmlns="http://www.w3.org/2000/svg">
<path d="M24.5601 0C7.46934 0 2.41467e-06 14.1791 2.41467e-06 23.5473L0 174.959C0 192.809 14.0524 200 24.0537 200H175.465C190.151 200 200 188.885 200 175.718V23.041C200 10.761 188.758 0 176.984 0H24.5601Z" fill="#1F2833"/>
<path d="M127.75 149.25C127.75 159.467 119.411 167.75 109.125 167.75C98.8387 167.75 90.5 159.467 90.5 149.25C90.5 139.033 98.8387 130.75 109.125 130.75C119.411 130.75 127.75 139.033 127.75 149.25Z" fill="#49F1C1"/>
<path d="M46.5001 31.3983C40.25 26.1482 31 30.6482 31 38.6484V160.873L45.475 147.723V130.023V69.6482C46.75 60.3982 55.875 59.3982 60.325 62.6482L94.0544 93.0568C98.7412 96.4852 103.288 94.9916 106.25 92.513L139.4 62.3982C147.125 58.3982 153.5 63.8982 153.9 69.6482V150.648C154.65 160.273 167.875 159.898 168.375 150.648V37.6482C167.375 28.8983 157.875 26.8982 153 31.1483L105.25 73.7731C101.125 76.7731 96.25 75.2731 94.375 73.7731L46.5001 31.3983Z" fill="#49F1C1"/>
<path fill-rule="evenodd" clip-rule="evenodd" d="M45.475 69.6482V130.023V147.723L99.875 98.3043L94.0544 93.0568L60.325 62.6482C55.875 59.3982 46.75 60.3982 45.475 69.6482ZM60.25 86.7732C59.875 82.6482 63 82.8982 64.5 84.9732L77 96.5232C79 98.1482 79 99.2732 77.5 100.523L63.375 113.148C62.75 113.898 60 114.023 60.25 110.898V86.7732Z" fill="#49F1C1"/>
<path d="M31 163.898C31 170.023 38.625 173.648 43.5 168.398L124.75 94.5232C132 90.0232 139.475 95.5232 139.475 102.273V162.523C140.15 168.398 145.625 170.898 148.125 170.898H158.25C163.625 170.898 167.25 168.023 168.375 162.773V150.648C167.875 159.898 154.65 160.273 153.9 150.648V69.6482C153.5 63.8982 147.125 58.3982 139.4 62.3982L106.25 92.513L99.875 98.3043L45.475 147.723L31 160.873V163.898Z" fill="#49F1C1"/>
<path d="M168.375 150.648V37.6482C167.375 28.8983 157.875 26.8982 153 31.1483L105.25 73.7731C101.125 76.7731 96.25 75.2731 94.375 73.7731L46.5001 31.3983C40.25 26.1482 31 30.6482 31 38.6484V160.873M168.375 150.648V162.773C167.25 168.023 163.625 170.898 158.25 170.898H148.125C145.625 170.898 140.15 168.398 139.475 162.523V102.273C139.475 95.5232 132 90.0232 124.75 94.5232L43.5 168.398C38.625 173.648 31 170.023 31 163.898V160.873M168.375 150.648C167.875 159.898 154.65 160.273 153.9 150.648V69.6482C153.5 63.8982 147.125 58.3982 139.4 62.3982L106.25 92.513M31 160.873L45.475 147.723M45.475 147.723V130.023V69.6482C46.75 60.3982 55.875 59.3982 60.325 62.6482L94.0544 93.0568M45.475 147.723L99.875 98.3043M106.25 92.513L99.875 98.3043M106.25 92.513C103.288 94.9916 98.7412 96.4852 94.0544 93.0568M93.875 92.9232C93.9348 92.9685 93.9946 93.013 94.0544 93.0568M99.875 98.3043L94.0544 93.0568M64.5 84.9732C63 82.8982 59.875 82.6482 60.25 86.7732V110.898C60 114.023 62.75 113.898 63.375 113.148L77.5 100.523C79 99.2732 79 98.1482 77 96.5232L64.5 84.9732Z" stroke="#1F2833" stroke-width="5"/>
<path d="M127.835 109.491C127.835 108.616 126.673 108.116 125.873 108.866L113.423 120.6C112.923 120.975 112.673 122.1 113.798 122.475L126.423 127.1C127.048 127.225 127.798 126.85 127.835 126.1L127.835 109.491Z" fill="#49F1C1"/>
</svg>
