<svg width="143" height="148" viewBox="0 0 143 148" fill="none" xmlns="http://www.w3.org/2000/svg">
<path d="M99.75 123.25C99.75 133.467 91.4113 141.75 81.125 141.75C70.8387 141.75 62.5 133.467 62.5 123.25C62.5 113.033 70.8387 104.75 81.125 104.75C91.4113 104.75 99.75 113.033 99.75 123.25Z" fill="#49F1C1"/>
<path d="M18.5001 5.39825C12.25 0.148154 3 4.64816 3 12.6484V134.873L17.475 121.723V104.023V43.6482C18.75 34.3982 27.875 33.3982 32.325 36.6482L66.0544 67.0568C70.7412 70.4852 75.2878 68.9916 78.25 66.513L111.4 36.3982C119.125 32.3982 125.5 37.8982 125.9 43.6482V124.648C126.65 134.273 139.875 133.898 140.375 124.648V11.6482C139.375 2.89827 129.875 0.898197 125 5.14828L77.25 47.7731C73.125 50.7731 68.25 49.2731 66.375 47.7731L18.5001 5.39825Z" fill="#49F1C1"/>
<path fill-rule="evenodd" clip-rule="evenodd" d="M17.475 43.6482V104.023V121.723L71.875 72.3043L66.0544 67.0568L32.325 36.6482C27.875 33.3982 18.75 34.3982 17.475 43.6482ZM32.25 60.7732C31.875 56.6482 35 56.8982 36.5 58.9732L49 70.5232C51 72.1482 51 73.2732 49.5 74.5232L35.375 87.1482C34.75 87.8982 32 88.0232 32.25 84.8982V60.7732Z" fill="#49F1C1"/>
<path d="M3 137.898C3 144.023 10.625 147.648 15.5 142.398L96.75 68.5232C104 64.0232 111.475 69.5232 111.475 76.2732V136.523C112.15 142.398 117.625 144.898 120.125 144.898H130.25C135.625 144.898 139.25 142.023 140.375 136.773V124.648C139.875 133.898 126.65 134.273 125.9 124.648V43.6482C125.5 37.8982 119.125 32.3982 111.4 36.3982L78.25 66.513L71.875 72.3043L17.475 121.723L3 134.873V137.898Z" fill="#49F1C1"/>
<path d="M140.375 124.648V11.6482C139.375 2.89827 129.875 0.898197 125 5.14828L77.25 47.7731C73.125 50.7731 68.25 49.2731 66.375 47.7731L18.5001 5.39825C12.25 0.148154 3 4.64816 3 12.6484V134.873M140.375 124.648V136.773C139.25 142.023 135.625 144.898 130.25 144.898H120.125C117.625 144.898 112.15 142.398 111.475 136.523V76.2732C111.475 69.5232 104 64.0232 96.75 68.5232L15.5 142.398C10.625 147.648 3 144.023 3 137.898V134.873M140.375 124.648C139.875 133.898 126.65 134.273 125.9 124.648V43.6482C125.5 37.8982 119.125 32.3982 111.4 36.3982L78.25 66.513M3 134.873L17.475 121.723M17.475 121.723V104.023V43.6482C18.75 34.3982 27.875 33.3982 32.325 36.6482L66.0544 67.0568M17.475 121.723L71.875 72.3043M78.25 66.513L71.875 72.3043M78.25 66.513C75.2878 68.9916 70.7412 70.4852 66.0544 67.0568M65.875 66.9232C65.9348 66.9685 65.9946 67.013 66.0544 67.0568M71.875 72.3043L66.0544 67.0568M36.5 58.9732C35 56.8982 31.875 56.6482 32.25 60.7732V84.8982C32 88.0232 34.75 87.8982 35.375 87.1482L49.5 74.5232C51 73.2732 51 72.1482 49 70.5232L36.5 58.9732Z" stroke="#1F2833" stroke-width="5"/>
<path d="M99.8353 83.491C99.8353 82.6159 98.6728 82.1158 97.8728 82.8659L85.4228 94.5999C84.9228 94.9749 84.6728 96.0999 85.7978 96.4749L98.4228 101.1C99.0478 101.225 99.7978 100.85 99.8353 100.1L99.8353 83.491Z" fill="#49F1C1"/>
</svg>
