<svg width="143" height="191" viewBox="0 0 143 191" fill="none" xmlns="http://www.w3.org/2000/svg">
<path d="M18.015 176.42C17.515 175.75 16.975 175.285 16.395 175.025C15.815 174.755 15.165 174.62 14.445 174.62C13.035 174.62 11.95 175.125 11.19 176.135C10.43 177.145 10.05 178.585 10.05 180.455C10.05 181.445 10.135 182.295 10.305 183.005C10.475 183.705 10.725 184.285 11.055 184.745C11.385 185.195 11.79 185.525 12.27 185.735C12.75 185.945 13.295 186.05 13.905 186.05C14.785 186.05 15.55 185.85 16.2 185.45C16.86 185.05 17.465 184.485 18.015 183.755V176.42ZM20.685 165.905V188H19.095C18.715 188 18.475 187.815 18.375 187.445L18.135 185.6C17.485 186.38 16.745 187.01 15.915 187.49C15.085 187.97 14.125 188.21 13.035 188.21C12.165 188.21 11.375 188.045 10.665 187.715C9.955 187.375 9.35 186.88 8.85 186.23C8.35 185.58 7.965 184.77 7.695 183.8C7.425 182.83 7.29 181.715 7.29 180.455C7.29 179.335 7.44 178.295 7.74 177.335C8.04 176.365 8.47 175.525 9.03 174.815C9.59 174.105 10.275 173.55 11.085 173.15C11.905 172.74 12.825 172.535 13.845 172.535C14.775 172.535 15.57 172.695 16.23 173.015C16.9 173.325 17.495 173.76 18.015 174.32V165.905H20.685ZM35.0721 178.745C35.0721 178.125 34.9821 177.56 34.8021 177.05C34.6321 176.53 34.3771 176.085 34.0371 175.715C33.7071 175.335 33.3021 175.045 32.8221 174.845C32.3421 174.635 31.7971 174.53 31.1871 174.53C29.9071 174.53 28.8921 174.905 28.1421 175.655C27.4021 176.395 26.9421 177.425 26.7621 178.745H35.0721ZM37.2321 185.87C36.9021 186.27 36.5071 186.62 36.0471 186.92C35.5871 187.21 35.0921 187.45 34.5621 187.64C34.0421 187.83 33.5021 187.97 32.9421 188.06C32.3821 188.16 31.8271 188.21 31.2771 188.21C30.2271 188.21 29.2571 188.035 28.3671 187.685C27.4871 187.325 26.7221 186.805 26.0721 186.125C25.4321 185.435 24.9321 184.585 24.5721 183.575C24.2121 182.565 24.0321 181.405 24.0321 180.095C24.0321 179.035 24.1921 178.045 24.5121 177.125C24.8421 176.205 25.3121 175.41 25.9221 174.74C26.5321 174.06 27.2771 173.53 28.1571 173.15C29.0371 172.76 30.0271 172.565 31.1271 172.565C32.0371 172.565 32.8771 172.72 33.6471 173.03C34.4271 173.33 35.0971 173.77 35.6571 174.35C36.2271 174.92 36.6721 175.63 36.9921 176.48C37.3121 177.32 37.4721 178.28 37.4721 179.36C37.4721 179.78 37.4271 180.06 37.3371 180.2C37.2471 180.34 37.0771 180.41 36.8271 180.41H26.6721C26.7021 181.37 26.8321 182.205 27.0621 182.915C27.3021 183.625 27.6321 184.22 28.0521 184.7C28.4721 185.17 28.9721 185.525 29.5521 185.765C30.1321 185.995 30.7821 186.11 31.5021 186.11C32.1721 186.11 32.7471 186.035 33.2271 185.885C33.7171 185.725 34.1371 185.555 34.4871 185.375C34.8371 185.195 35.1271 185.03 35.3571 184.88C35.5971 184.72 35.8021 184.64 35.9721 184.64C36.1921 184.64 36.3621 184.725 36.4821 184.895L37.2321 185.87ZM53.4495 172.805L47.2545 188H44.8545L38.6595 172.805H40.8345C41.0545 172.805 41.2345 172.86 41.3745 172.97C41.5145 173.08 41.6095 173.21 41.6595 173.36L45.5145 183.14C45.6345 183.51 45.7395 183.87 45.8295 184.22C45.9195 184.57 46.0045 184.92 46.0845 185.27C46.1645 184.92 46.2495 184.57 46.3395 184.22C46.4295 183.87 46.5395 183.51 46.6695 183.14L50.5695 173.36C50.6295 173.2 50.7295 173.07 50.8695 172.97C51.0095 172.86 51.1745 172.805 51.3645 172.805H53.4495ZM78.5416 166.505V188H75.9916V172.205C75.9916 171.995 75.9966 171.77 76.0066 171.53C76.0266 171.29 76.0466 171.045 76.0666 170.795L68.6866 184.235C68.4566 184.685 68.1066 184.91 67.6366 184.91H67.2166C66.7466 184.91 66.3966 184.685 66.1666 184.235L58.6366 170.735C58.6966 171.265 58.7266 171.755 58.7266 172.205V188H56.1766V166.505H58.3216C58.5816 166.505 58.7816 166.53 58.9216 166.58C59.0616 166.63 59.1966 166.77 59.3266 167L66.7516 180.23C66.8716 180.47 66.9866 180.72 67.0966 180.98C67.2166 181.24 67.3266 181.505 67.4266 181.775C67.5266 181.505 67.6316 181.24 67.7416 180.98C67.8516 180.71 67.9716 180.455 68.1016 180.215L75.3916 167C75.5116 166.77 75.6416 166.63 75.7816 166.58C75.9316 166.53 76.1366 166.505 76.3966 166.505H78.5416ZM91.2035 181.16C89.9735 181.2 88.9235 181.3 88.0535 181.46C87.1935 181.61 86.4885 181.81 85.9385 182.06C85.3985 182.31 85.0035 182.605 84.7535 182.945C84.5135 183.285 84.3935 183.665 84.3935 184.085C84.3935 184.485 84.4585 184.83 84.5885 185.12C84.7185 185.41 84.8935 185.65 85.1135 185.84C85.3435 186.02 85.6085 186.155 85.9085 186.245C86.2185 186.325 86.5485 186.365 86.8985 186.365C87.3685 186.365 87.7985 186.32 88.1885 186.23C88.5785 186.13 88.9435 185.99 89.2835 185.81C89.6335 185.63 89.9635 185.415 90.2735 185.165C90.5935 184.915 90.9035 184.63 91.2035 184.31V181.16ZM82.5785 174.95C83.4185 174.14 84.3235 173.535 85.2935 173.135C86.2635 172.735 87.3385 172.535 88.5185 172.535C89.3685 172.535 90.1235 172.675 90.7835 172.955C91.4435 173.235 91.9985 173.625 92.4485 174.125C92.8985 174.625 93.2385 175.23 93.4685 175.94C93.6985 176.65 93.8135 177.43 93.8135 178.28V188H92.6285C92.3685 188 92.1685 187.96 92.0285 187.88C91.8885 187.79 91.7785 187.62 91.6985 187.37L91.3985 185.93C90.9985 186.3 90.6085 186.63 90.2285 186.92C89.8485 187.2 89.4485 187.44 89.0285 187.64C88.6085 187.83 88.1585 187.975 87.6785 188.075C87.2085 188.185 86.6835 188.24 86.1035 188.24C85.5135 188.24 84.9585 188.16 84.4385 188C83.9185 187.83 83.4635 187.58 83.0735 187.25C82.6935 186.92 82.3885 186.505 82.1585 186.005C81.9385 185.495 81.8285 184.895 81.8285 184.205C81.8285 183.605 81.9935 183.03 82.3235 182.48C82.6535 181.92 83.1885 181.425 83.9285 180.995C84.6685 180.565 85.6335 180.215 86.8235 179.945C88.0135 179.665 89.4735 179.505 91.2035 179.465V178.28C91.2035 177.1 90.9485 176.21 90.4385 175.61C89.9285 175 89.1835 174.695 88.2035 174.695C87.5435 174.695 86.9885 174.78 86.5385 174.95C86.0985 175.11 85.7135 175.295 85.3835 175.505C85.0635 175.705 84.7835 175.89 84.5435 176.06C84.3135 176.22 84.0835 176.3 83.8535 176.3C83.6735 176.3 83.5185 176.255 83.3885 176.165C83.2585 176.065 83.1485 175.945 83.0585 175.805L82.5785 174.95ZM100.416 175.85C100.896 174.81 101.486 174 102.186 173.42C102.886 172.83 103.741 172.535 104.751 172.535C105.071 172.535 105.376 172.57 105.666 172.64C105.966 172.71 106.231 172.82 106.461 172.97L106.266 174.965C106.206 175.215 106.056 175.34 105.816 175.34C105.676 175.34 105.471 175.31 105.201 175.25C104.931 175.19 104.626 175.16 104.286 175.16C103.806 175.16 103.376 175.23 102.996 175.37C102.626 175.51 102.291 175.72 101.991 176C101.701 176.27 101.436 176.61 101.196 177.02C100.966 177.42 100.756 177.88 100.566 178.4V188H97.8806V172.805H99.4106C99.7006 172.805 99.9006 172.86 100.011 172.97C100.121 173.08 100.196 173.27 100.236 173.54L100.416 175.85ZM118.768 175.505C118.688 175.615 118.608 175.7 118.528 175.76C118.448 175.82 118.338 175.85 118.198 175.85C118.048 175.85 117.883 175.79 117.703 175.67C117.523 175.54 117.298 175.4 117.028 175.25C116.768 175.1 116.443 174.965 116.053 174.845C115.673 174.715 115.203 174.65 114.643 174.65C113.893 174.65 113.233 174.785 112.663 175.055C112.093 175.315 111.613 175.695 111.223 176.195C110.843 176.695 110.553 177.3 110.353 178.01C110.163 178.72 110.068 179.515 110.068 180.395C110.068 181.315 110.173 182.135 110.383 182.855C110.593 183.565 110.888 184.165 111.268 184.655C111.658 185.135 112.123 185.505 112.663 185.765C113.213 186.015 113.828 186.14 114.508 186.14C115.158 186.14 115.693 186.065 116.113 185.915C116.533 185.755 116.878 185.58 117.148 185.39C117.428 185.2 117.658 185.03 117.838 184.88C118.028 184.72 118.213 184.64 118.393 184.64C118.613 184.64 118.783 184.725 118.903 184.895L119.653 185.87C119.323 186.28 118.948 186.63 118.528 186.92C118.108 187.21 117.653 187.455 117.163 187.655C116.683 187.845 116.178 187.985 115.648 188.075C115.118 188.165 114.578 188.21 114.028 188.21C113.078 188.21 112.193 188.035 111.373 187.685C110.563 187.335 109.858 186.83 109.258 186.17C108.658 185.5 108.188 184.68 107.848 183.71C107.508 182.74 107.338 181.635 107.338 180.395C107.338 179.265 107.493 178.22 107.803 177.26C108.123 176.3 108.583 175.475 109.183 174.785C109.793 174.085 110.538 173.54 111.418 173.15C112.308 172.76 113.328 172.565 114.478 172.565C115.548 172.565 116.488 172.74 117.298 173.09C118.118 173.43 118.843 173.915 119.473 174.545L118.768 175.505ZM128.661 172.565C129.771 172.565 130.771 172.75 131.661 173.12C132.551 173.49 133.311 174.015 133.941 174.695C134.571 175.375 135.051 176.2 135.381 177.17C135.721 178.13 135.891 179.205 135.891 180.395C135.891 181.595 135.721 182.675 135.381 183.635C135.051 184.595 134.571 185.415 133.941 186.095C133.311 186.775 132.551 187.3 131.661 187.67C130.771 188.03 129.771 188.21 128.661 188.21C127.541 188.21 126.531 188.03 125.631 187.67C124.741 187.3 123.981 186.775 123.351 186.095C122.721 185.415 122.236 184.595 121.896 183.635C121.566 182.675 121.401 181.595 121.401 180.395C121.401 179.205 121.566 178.13 121.896 177.17C122.236 176.2 122.721 175.375 123.351 174.695C123.981 174.015 124.741 173.49 125.631 173.12C126.531 172.75 127.541 172.565 128.661 172.565ZM128.661 186.125C130.161 186.125 131.281 185.625 132.021 184.625C132.761 183.615 133.131 182.21 133.131 180.41C133.131 178.6 132.761 177.19 132.021 176.18C131.281 175.17 130.161 174.665 128.661 174.665C127.901 174.665 127.236 174.795 126.666 175.055C126.106 175.315 125.636 175.69 125.256 176.18C124.886 176.67 124.606 177.275 124.416 177.995C124.236 178.705 124.146 179.51 124.146 180.41C124.146 182.21 124.516 183.615 125.256 184.625C126.006 185.625 127.141 186.125 128.661 186.125Z" fill="#E7E3D4"/>
<path d="M99.75 123.25C99.75 133.467 91.4113 141.75 81.125 141.75C70.8387 141.75 62.5 133.467 62.5 123.25C62.5 113.033 70.8387 104.75 81.125 104.75C91.4113 104.75 99.75 113.033 99.75 123.25Z" fill="#49F1C1"/>
<path d="M18.5001 5.39825C12.25 0.148154 3 4.64816 3 12.6484V134.873L17.475 121.723V104.023V43.6482C18.75 34.3982 27.875 33.3982 32.325 36.6482L66.0544 67.0568C70.7412 70.4852 75.2878 68.9916 78.25 66.513L111.4 36.3982C119.125 32.3982 125.5 37.8982 125.9 43.6482V124.648C126.65 134.273 139.875 133.898 140.375 124.648V11.6482C139.375 2.89827 129.875 0.898197 125 5.14828L77.25 47.7731C73.125 50.7731 68.25 49.2731 66.375 47.7731L18.5001 5.39825Z" fill="#49F1C1"/>
<path fill-rule="evenodd" clip-rule="evenodd" d="M17.475 43.6482V104.023V121.723L71.875 72.3043L66.0544 67.0568L32.325 36.6482C27.875 33.3982 18.75 34.3982 17.475 43.6482ZM32.25 60.7732C31.875 56.6482 35 56.8982 36.5 58.9732L49 70.5232C51 72.1482 51 73.2732 49.5 74.5232L35.375 87.1482C34.75 87.8982 32 88.0232 32.25 84.8982V60.7732Z" fill="#49F1C1"/>
<path d="M3 137.898C3 144.023 10.625 147.648 15.5 142.398L96.75 68.5232C104 64.0232 111.475 69.5232 111.475 76.2732V136.523C112.15 142.398 117.625 144.898 120.125 144.898H130.25C135.625 144.898 139.25 142.023 140.375 136.773V124.648C139.875 133.898 126.65 134.273 125.9 124.648V43.6482C125.5 37.8982 119.125 32.3982 111.4 36.3982L78.25 66.513L71.875 72.3043L17.475 121.723L3 134.873V137.898Z" fill="#49F1C1"/>
<path d="M140.375 124.648V11.6482C139.375 2.89827 129.875 0.898197 125 5.14828L77.25 47.7731C73.125 50.7731 68.25 49.2731 66.375 47.7731L18.5001 5.39825C12.25 0.148154 3 4.64816 3 12.6484V134.873M140.375 124.648V136.773C139.25 142.023 135.625 144.898 130.25 144.898H120.125C117.625 144.898 112.15 142.398 111.475 136.523V76.2732C111.475 69.5232 104 64.0232 96.75 68.5232L15.5 142.398C10.625 147.648 3 144.023 3 137.898V134.873M140.375 124.648C139.875 133.898 126.65 134.273 125.9 124.648V43.6482C125.5 37.8982 119.125 32.3982 111.4 36.3982L78.25 66.513M3 134.873L17.475 121.723M17.475 121.723V104.023V43.6482C18.75 34.3982 27.875 33.3982 32.325 36.6482L66.0544 67.0568M17.475 121.723L71.875 72.3043M78.25 66.513L71.875 72.3043M78.25 66.513C75.2878 68.9916 70.7412 70.4852 66.0544 67.0568M65.875 66.9232C65.9348 66.9685 65.9946 67.013 66.0544 67.0568M71.875 72.3043L66.0544 67.0568M36.5 58.9732C35 56.8982 31.875 56.6482 32.25 60.7732V84.8982C32 88.0232 34.75 87.8982 35.375 87.1482L49.5 74.5232C51 73.2732 51 72.1482 49 70.5232L36.5 58.9732Z" stroke="#1F2833" stroke-width="5"/>
<path d="M99.8353 83.491C99.8353 82.6159 98.6728 82.1158 97.8728 82.8659L85.4228 94.5999C84.9228 94.9749 84.6728 96.0999 85.7978 96.4749L98.4228 101.1C99.0478 101.225 99.7978 100.85 99.8353 100.1L99.8353 83.491Z" fill="#49F1C1"/>
</svg>
