<svg width="203" height="64" viewBox="0 0 203 64" fill="none" xmlns="http://www.w3.org/2000/svg">
<path fill-rule="evenodd" clip-rule="evenodd" d="M199.654 58.6667C200.541 58.6667 201.392 58.9476 202.02 59.4477C202.647 59.9478 203 60.6261 203 61.3333C203 62.0406 202.647 62.7189 202.02 63.219C201.392 63.7191 200.541 64 199.654 64C198.766 64 197.915 63.7191 197.288 63.219C196.66 62.7189 196.308 62.0406 196.308 61.3333C196.308 60.6261 196.66 59.9478 197.288 59.4477C197.915 58.9476 198.766 58.6667 199.654 58.6667ZM175.115 58.6667C176.003 58.6667 176.854 58.9476 177.481 59.4477C178.109 59.9478 178.462 60.6261 178.462 61.3333C178.462 62.0406 178.109 62.7189 177.481 63.219C176.854 63.7191 176.003 64 175.115 64C174.228 64 173.377 63.7191 172.749 63.219C172.122 62.7189 171.769 62.0406 171.769 61.3333C171.769 60.6261 172.122 59.9478 172.749 59.4477C173.377 58.9476 174.228 58.6667 175.115 58.6667ZM150.577 58.6667C151.464 58.6667 152.316 58.9476 152.943 59.4477C153.571 59.9478 153.923 60.6261 153.923 61.3333C153.923 62.0406 153.571 62.7189 152.943 63.219C152.316 63.7191 151.464 64 150.577 64C149.689 64 148.838 63.7191 148.211 63.219C147.583 62.7189 147.231 62.0406 147.231 61.3333C147.231 60.6261 147.583 59.9478 148.211 59.4477C148.838 58.9476 149.689 58.6667 150.577 58.6667ZM126.038 58.6667C126.926 58.6667 127.777 58.9476 128.405 59.4477C129.032 59.9478 129.385 60.6261 129.385 61.3333C129.385 62.0406 129.032 62.7189 128.405 63.219C127.777 63.7191 126.926 64 126.038 64C125.151 64 124.3 63.7191 123.672 63.219C123.045 62.7189 122.692 62.0406 122.692 61.3333C122.692 60.6261 123.045 59.9478 123.672 59.4477C124.3 58.9476 125.151 58.6667 126.038 58.6667ZM101.5 58.6667C102.387 58.6667 103.239 58.9476 103.866 59.4477C104.494 59.9478 104.846 60.6261 104.846 61.3333C104.846 62.0406 104.494 62.7189 103.866 63.219C103.239 63.7191 102.387 64 101.5 64C100.613 64 99.7614 63.7191 99.1339 63.219C98.5064 62.7189 98.1538 62.0406 98.1538 61.3333C98.1538 60.6261 98.5064 59.9478 99.1339 59.4477C99.7614 58.9476 100.613 58.6667 101.5 58.6667ZM76.9615 58.6667C77.849 58.6667 78.7001 58.9476 79.3276 59.4477C79.9552 59.9478 80.3077 60.6261 80.3077 61.3333C80.3077 62.0406 79.9552 62.7189 79.3276 63.219C78.7001 63.7191 77.849 64 76.9615 64C76.0741 64 75.223 63.7191 74.5954 63.219C73.9679 62.7189 73.6154 62.0406 73.6154 61.3333C73.6154 60.6261 73.9679 59.9478 74.5954 59.4477C75.223 58.9476 76.0741 58.6667 76.9615 58.6667ZM52.4231 58.6667C53.3105 58.6667 54.1617 58.9476 54.7892 59.4477C55.4167 59.9478 55.7692 60.6261 55.7692 61.3333C55.7692 62.0406 55.4167 62.7189 54.7892 63.219C54.1617 63.7191 53.3105 64 52.4231 64C51.5356 64 50.6845 63.7191 50.057 63.219C49.4294 62.7189 49.0769 62.0406 49.0769 61.3333C49.0769 60.6261 49.4294 59.9478 50.057 59.4477C50.6845 58.9476 51.5356 58.6667 52.4231 58.6667ZM27.8846 58.6667C28.7721 58.6667 29.6232 58.9476 30.2507 59.4477C30.8782 59.9478 31.2308 60.6261 31.2308 61.3333C31.2308 62.0406 30.8782 62.7189 30.2507 63.219C29.6232 63.7191 28.7721 64 27.8846 64C26.9972 64 26.1461 63.7191 25.5185 63.219C24.891 62.7189 24.5385 62.0406 24.5385 61.3333C24.5385 60.6261 24.891 59.9478 25.5185 59.4477C26.1461 58.9476 26.9972 58.6667 27.8846 58.6667ZM3.34615 58.6667C4.23361 58.6667 5.0847 58.9476 5.71223 59.4477C6.33975 59.9478 6.69231 60.6261 6.69231 61.3333C6.69231 62.0406 6.33975 62.7189 5.71223 63.219C5.0847 63.7191 4.23361 64 3.34615 64C2.4587 64 1.60761 63.7191 0.98008 63.219C0.352555 62.7189 0 62.0406 0 61.3333C0 60.6261 0.352555 59.9478 0.98008 59.4477C1.60761 58.9476 2.4587 58.6667 3.34615 58.6667ZM3.34615 39.1111C4.23361 39.1111 5.0847 39.392 5.71223 39.8921C6.33975 40.3922 6.69231 41.0705 6.69231 41.7778C6.69231 42.485 6.33975 43.1633 5.71223 43.6634C5.0847 44.1635 4.23361 44.4444 3.34615 44.4444C2.4587 44.4444 1.60761 44.1635 0.98008 43.6634C0.352555 43.1633 0 42.485 0 41.7778C0 41.0705 0.352555 40.3922 0.98008 39.8921C1.60761 39.392 2.4587 39.1111 3.34615 39.1111ZM199.654 39.1111C200.541 39.1111 201.392 39.392 202.02 39.8921C202.647 40.3922 203 41.0705 203 41.7778C203 42.485 202.647 43.1633 202.02 43.6634C201.392 44.1635 200.541 44.4444 199.654 44.4444C198.766 44.4444 197.915 44.1635 197.288 43.6634C196.66 43.1633 196.308 42.485 196.308 41.7778C196.308 41.0705 196.66 40.3922 197.288 39.8921C197.915 39.392 198.766 39.1111 199.654 39.1111ZM175.115 39.1111C176.003 39.1111 176.854 39.392 177.481 39.8921C178.109 40.3922 178.462 41.0705 178.462 41.7778C178.462 42.485 178.109 43.1633 177.481 43.6634C176.854 44.1635 176.003 44.4444 175.115 44.4444C174.228 44.4444 173.377 44.1635 172.749 43.6634C172.122 43.1633 171.769 42.485 171.769 41.7778C171.769 41.0705 172.122 40.3922 172.749 39.8921C173.377 39.392 174.228 39.1111 175.115 39.1111ZM150.577 39.1111C151.464 39.1111 152.316 39.392 152.943 39.8921C153.571 40.3922 153.923 41.0705 153.923 41.7778C153.923 42.485 153.571 43.1633 152.943 43.6634C152.316 44.1635 151.464 44.4444 150.577 44.4444C149.689 44.4444 148.838 44.1635 148.211 43.6634C147.583 43.1633 147.231 42.485 147.231 41.7778C147.231 41.0705 147.583 40.3922 148.211 39.8921C148.838 39.392 149.689 39.1111 150.577 39.1111ZM126.038 39.1111C126.926 39.1111 127.777 39.392 128.405 39.8921C129.032 40.3922 129.385 41.0705 129.385 41.7778C129.385 42.485 129.032 43.1633 128.405 43.6634C127.777 44.1635 126.926 44.4444 126.038 44.4444C125.151 44.4444 124.3 44.1635 123.672 43.6634C123.045 43.1633 122.692 42.485 122.692 41.7778C122.692 41.0705 123.045 40.3922 123.672 39.8921C124.3 39.392 125.151 39.1111 126.038 39.1111ZM101.5 39.1111C102.387 39.1111 103.239 39.392 103.866 39.8921C104.494 40.3922 104.846 41.0705 104.846 41.7778C104.846 42.485 104.494 43.1633 103.866 43.6634C103.239 44.1635 102.387 44.4444 101.5 44.4444C100.613 44.4444 99.7614 44.1635 99.1339 43.6634C98.5064 43.1633 98.1538 42.485 98.1538 41.7778C98.1538 41.0705 98.5064 40.3922 99.1339 39.8921C99.7614 39.392 100.613 39.1111 101.5 39.1111ZM76.9615 39.1111C77.849 39.1111 78.7001 39.392 79.3276 39.8921C79.9552 40.3922 80.3077 41.0705 80.3077 41.7778C80.3077 42.485 79.9552 43.1633 79.3276 43.6634C78.7001 44.1635 77.849 44.4444 76.9615 44.4444C76.0741 44.4444 75.223 44.1635 74.5954 43.6634C73.9679 43.1633 73.6154 42.485 73.6154 41.7778C73.6154 41.0705 73.9679 40.3922 74.5954 39.8921C75.223 39.392 76.0741 39.1111 76.9615 39.1111ZM52.4231 39.1111C53.3105 39.1111 54.1617 39.392 54.7892 39.8921C55.4167 40.3922 55.7692 41.0705 55.7692 41.7778C55.7692 42.485 55.4167 43.1633 54.7892 43.6634C54.1617 44.1635 53.3105 44.4444 52.4231 44.4444C51.5356 44.4444 50.6845 44.1635 50.057 43.6634C49.4294 43.1633 49.0769 42.485 49.0769 41.7778C49.0769 41.0705 49.4294 40.3922 50.057 39.8921C50.6845 39.392 51.5356 39.1111 52.4231 39.1111ZM27.8846 39.1111C28.7721 39.1111 29.6232 39.392 30.2507 39.8921C30.8782 40.3922 31.2308 41.0705 31.2308 41.7778C31.2308 42.485 30.8782 43.1633 30.2507 43.6634C29.6232 44.1635 28.7721 44.4444 27.8846 44.4444C26.9972 44.4444 26.1461 44.1635 25.5185 43.6634C24.891 43.1633 24.5385 42.485 24.5385 41.7778C24.5385 41.0705 24.891 40.3922 25.5185 39.8921C26.1461 39.392 26.9972 39.1111 27.8846 39.1111ZM27.8846 19.5556C28.7721 19.5556 29.6232 19.8365 30.2507 20.3366C30.8782 20.8367 31.2308 21.515 31.2308 22.2222C31.2308 22.9295 30.8782 23.6078 30.2507 24.1079C29.6232 24.608 28.7721 24.8889 27.8846 24.8889C26.9972 24.8889 26.1461 24.608 25.5185 24.1079C24.891 23.6078 24.5385 22.9295 24.5385 22.2222C24.5385 21.515 24.891 20.8367 25.5185 20.3366C26.1461 19.8365 26.9972 19.5556 27.8846 19.5556ZM52.4231 19.5556C53.3105 19.5556 54.1617 19.8365 54.7892 20.3366C55.4167 20.8367 55.7692 21.515 55.7692 22.2222C55.7692 22.9295 55.4167 23.6078 54.7892 24.1079C54.1617 24.608 53.3105 24.8889 52.4231 24.8889C51.5356 24.8889 50.6845 24.608 50.057 24.1079C49.4294 23.6078 49.0769 22.9295 49.0769 22.2222C49.0769 21.515 49.4294 20.8367 50.057 20.3366C50.6845 19.8365 51.5356 19.5556 52.4231 19.5556ZM76.9615 19.5556C77.849 19.5556 78.7001 19.8365 79.3276 20.3366C79.9552 20.8367 80.3077 21.515 80.3077 22.2222C80.3077 22.9295 79.9552 23.6078 79.3276 24.1079C78.7001 24.608 77.849 24.8889 76.9615 24.8889C76.0741 24.8889 75.223 24.608 74.5954 24.1079C73.9679 23.6078 73.6154 22.9295 73.6154 22.2222C73.6154 21.515 73.9679 20.8367 74.5954 20.3366C75.223 19.8365 76.0741 19.5556 76.9615 19.5556ZM101.5 19.5556C102.387 19.5556 103.239 19.8365 103.866 20.3366C104.494 20.8367 104.846 21.515 104.846 22.2222C104.846 22.9295 104.494 23.6078 103.866 24.1079C103.239 24.608 102.387 24.8889 101.5 24.8889C100.613 24.8889 99.7614 24.608 99.1339 24.1079C98.5064 23.6078 98.1538 22.9295 98.1538 22.2222C98.1538 21.515 98.5064 20.8367 99.1339 20.3366C99.7614 19.8365 100.613 19.5556 101.5 19.5556ZM126.038 19.5556C126.926 19.5556 127.777 19.8365 128.405 20.3366C129.032 20.8367 129.385 21.515 129.385 22.2222C129.385 22.9295 129.032 23.6078 128.405 24.1079C127.777 24.608 126.926 24.8889 126.038 24.8889C125.151 24.8889 124.3 24.608 123.672 24.1079C123.045 23.6078 122.692 22.9295 122.692 22.2222C122.692 21.515 123.045 20.8367 123.672 20.3366C124.3 19.8365 125.151 19.5556 126.038 19.5556ZM150.577 19.5556C151.464 19.5556 152.316 19.8365 152.943 20.3366C153.571 20.8367 153.923 21.515 153.923 22.2222C153.923 22.9295 153.571 23.6078 152.943 24.1079C152.316 24.608 151.464 24.8889 150.577 24.8889C149.689 24.8889 148.838 24.608 148.211 24.1079C147.583 23.6078 147.231 22.9295 147.231 22.2222C147.231 21.515 147.583 20.8367 148.211 20.3366C148.838 19.8365 149.689 19.5556 150.577 19.5556ZM175.115 19.5556C176.003 19.5556 176.854 19.8365 177.481 20.3366C178.109 20.8367 178.462 21.515 178.462 22.2222C178.462 22.9295 178.109 23.6078 177.481 24.1079C176.854 24.608 176.003 24.8889 175.115 24.8889C174.228 24.8889 173.377 24.608 172.749 24.1079C172.122 23.6078 171.769 22.9295 171.769 22.2222C171.769 21.515 172.122 20.8367 172.749 20.3366C173.377 19.8365 174.228 19.5556 175.115 19.5556ZM199.654 19.5556C200.541 19.5556 201.392 19.8365 202.02 20.3366C202.647 20.8367 203 21.515 203 22.2222C203 22.9295 202.647 23.6078 202.02 24.1079C201.392 24.608 200.541 24.8889 199.654 24.8889C198.766 24.8889 197.915 24.608 197.288 24.1079C196.66 23.6078 196.308 22.9295 196.308 22.2222C196.308 21.515 196.66 20.8367 197.288 20.3366C197.915 19.8365 198.766 19.5556 199.654 19.5556ZM3.34615 19.5556C4.23361 19.5556 5.0847 19.8365 5.71223 20.3366C6.33975 20.8367 6.69231 21.515 6.69231 22.2222C6.69231 22.9295 6.33975 23.6078 5.71223 24.1079C5.0847 24.608 4.23361 24.8889 3.34615 24.8889C2.4587 24.8889 1.60761 24.608 0.98008 24.1079C0.352555 23.6078 0 22.9295 0 22.2222C0 21.515 0.352555 20.8367 0.98008 20.3366C1.60761 19.8365 2.4587 19.5556 3.34615 19.5556ZM27.8846 0C28.7721 0 29.6232 0.280936 30.2507 0.781033C30.8782 1.28113 31.2308 1.95942 31.2308 2.66667C31.2308 3.37391 30.8782 4.0522 30.2507 4.5523C29.6232 5.0524 28.7721 5.33333 27.8846 5.33333C26.9972 5.33333 26.1461 5.0524 25.5185 4.5523C24.891 4.0522 24.5385 3.37391 24.5385 2.66667C24.5385 1.95942 24.891 1.28113 25.5185 0.781033C26.1461 0.280936 26.9972 0 27.8846 0ZM52.4231 0C53.3105 0 54.1617 0.280936 54.7892 0.781033C55.4167 1.28113 55.7692 1.95942 55.7692 2.66667C55.7692 3.37391 55.4167 4.0522 54.7892 4.5523C54.1617 5.0524 53.3105 5.33333 52.4231 5.33333C51.5356 5.33333 50.6845 5.0524 50.057 4.5523C49.4294 4.0522 49.0769 3.37391 49.0769 2.66667C49.0769 1.95942 49.4294 1.28113 50.057 0.781033C50.6845 0.280936 51.5356 0 52.4231 0ZM76.9615 0C77.849 0 78.7001 0.280936 79.3276 0.781033C79.9552 1.28113 80.3077 1.95942 80.3077 2.66667C80.3077 3.37391 79.9552 4.0522 79.3276 4.5523C78.7001 5.0524 77.849 5.33333 76.9615 5.33333C76.0741 5.33333 75.223 5.0524 74.5954 4.5523C73.9679 4.0522 73.6154 3.37391 73.6154 2.66667C73.6154 1.95942 73.9679 1.28113 74.5954 0.781033C75.223 0.280936 76.0741 0 76.9615 0ZM101.5 0C102.387 0 103.239 0.280936 103.866 0.781033C104.494 1.28113 104.846 1.95942 104.846 2.66667C104.846 3.37391 104.494 4.0522 103.866 4.5523C103.239 5.0524 102.387 5.33333 101.5 5.33333C100.613 5.33333 99.7614 5.0524 99.1339 4.5523C98.5064 4.0522 98.1538 3.37391 98.1538 2.66667C98.1538 1.95942 98.5064 1.28113 99.1339 0.781033C99.7614 0.280936 100.613 0 101.5 0ZM126.038 0C126.926 0 127.777 0.280936 128.405 0.781033C129.032 1.28113 129.385 1.95942 129.385 2.66667C129.385 3.37391 129.032 4.0522 128.405 4.5523C127.777 5.0524 126.926 5.33333 126.038 5.33333C125.151 5.33333 124.3 5.0524 123.672 4.5523C123.045 4.0522 122.692 3.37391 122.692 2.66667C122.692 1.95942 123.045 1.28113 123.672 0.781033C124.3 0.280936 125.151 0 126.038 0ZM150.577 0C151.464 0 152.316 0.280936 152.943 0.781033C153.571 1.28113 153.923 1.95942 153.923 2.66667C153.923 3.37391 153.571 4.0522 152.943 4.5523C152.316 5.0524 151.464 5.33333 150.577 5.33333C149.689 5.33333 148.838 5.0524 148.211 4.5523C147.583 4.0522 147.231 3.37391 147.231 2.66667C147.231 1.95942 147.583 1.28113 148.211 0.781033C148.838 0.280936 149.689 0 150.577 0ZM175.115 0C176.003 0 176.854 0.280936 177.481 0.781033C178.109 1.28113 178.462 1.95942 178.462 2.66667C178.462 3.37391 178.109 4.0522 177.481 4.5523C176.854 5.0524 176.003 5.33333 175.115 5.33333C174.228 5.33333 173.377 5.0524 172.749 4.5523C172.122 4.0522 171.769 3.37391 171.769 2.66667C171.769 1.95942 172.122 1.28113 172.749 0.781033C173.377 0.280936 174.228 0 175.115 0ZM199.654 0C200.541 0 201.392 0.280936 202.02 0.781033C202.647 1.28113 203 1.95942 203 2.66667C203 3.37391 202.647 4.0522 202.02 4.5523C201.392 5.0524 200.541 5.33333 199.654 5.33333C198.766 5.33333 197.915 5.0524 197.288 4.5523C196.66 4.0522 196.308 3.37391 196.308 2.66667C196.308 1.95942 196.66 1.28113 197.288 0.781033C197.915 0.280936 198.766 0 199.654 0ZM3.34615 0C4.23361 0 5.0847 0.280936 5.71223 0.781033C6.33975 1.28113 6.69231 1.95942 6.69231 2.66667C6.69231 3.37391 6.33975 4.0522 5.71223 4.5523C5.0847 5.0524 4.23361 5.33333 3.34615 5.33333C2.4587 5.33333 1.60761 5.0524 0.98008 4.5523C0.352555 4.0522 0 3.37391 0 2.66667C0 1.95942 0.352555 1.28113 0.98008 0.781033C1.60761 0.280936 2.4587 0 3.34615 0Z" fill="#FF4D5A" fill-opacity="0.3"/>
</svg>
