<svg width="36" height="36" viewBox="0 0 36 36" fill="none" xmlns="http://www.w3.org/2000/svg">
<circle cx="18" cy="18" r="16" fill="white"/>
<path d="M18 2C14.8355 2 11.7421 2.93838 9.11088 4.69649C6.4797 6.45459 4.42894 8.95345 3.21793 11.8771C2.00693 14.8007 1.69008 18.0177 2.30744 21.1214C2.92481 24.2251 4.44866 27.0761 6.6863 29.3137C8.92394 31.5513 11.7749 33.0752 14.8786 33.6926C17.9823 34.3099 21.1993 33.9931 24.1229 32.7821C27.0466 31.5711 29.5454 29.5203 31.3035 26.8891C33.0616 24.2579 34 21.1645 34 18C34 13.7565 32.3143 9.68687 29.3137 6.68629C26.3131 3.68571 22.2435 2 18 2V2ZM16.0133 10C16.0133 9.46957 16.2241 8.96086 16.5991 8.58578C16.9742 8.21071 17.4829 8 18.0133 8C18.5438 8 19.0525 8.21071 19.4275 8.58578C19.8026 8.96086 20.0133 9.46957 20.0133 10V19.1867C20.0133 19.4493 19.9616 19.7094 19.8611 19.952C19.7606 20.1947 19.6133 20.4152 19.4275 20.6009C19.2418 20.7866 19.0214 20.9339 18.7787 21.0344C18.5361 21.1349 18.276 21.1867 18.0133 21.1867C17.7507 21.1867 17.4906 21.1349 17.248 21.0344C17.0053 20.9339 16.7848 20.7866 16.5991 20.6009C16.4134 20.4152 16.2661 20.1947 16.1656 19.952C16.0651 19.7094 16.0133 19.4493 16.0133 19.1867V10ZM18 28C17.5464 28 17.103 27.8655 16.7259 27.6135C16.3488 27.3615 16.0548 27.0033 15.8812 26.5843C15.7077 26.1652 15.6622 25.7041 15.7507 25.2593C15.8392 24.8144 16.0576 24.4058 16.3784 24.085C16.6991 23.7643 17.1077 23.5459 17.5526 23.4574C17.9975 23.3689 18.4586 23.4143 18.8776 23.5879C19.2967 23.7615 19.6548 24.0554 19.9068 24.4326C20.1588 24.8097 20.2933 25.2531 20.2933 25.7067C20.2933 26.3149 20.0517 26.8982 19.6216 27.3283C19.1916 27.7584 18.6082 28 18 28Z" fill="#F13737"/>
</svg>
