<svg width="752" height="817" viewBox="0 0 752 817" fill="none" xmlns="http://www.w3.org/2000/svg">
<g id="hero__objects">
<path id="objects__shadow-main" d="M751.785 816.777H261L751.785 46.2444V816.777Z" fill="#49F1C1"/>
<path id="objects__desk" d="M2 816.777L153.786 571.204H277.474M544.971 571.204H636.089" stroke="#1F2833" stroke-width="4"/>
<path id="objects__bookshelf" d="M751.919 651.137H636.206V145.187H751.919M751.919 308.076H653.552V163.334H751.919M751.919 326.223L653.552 325.359V470.101H751.919M751.919 488.248H653.552V632.99H751.919M679.413 509.851H653.489V632.99H679.413V509.851ZM679.413 509.851H705.337M705.337 509.851V632.99H731.261V509.851M705.337 509.851H731.261M731.261 509.851H751.919M658.673 527.134H674.228M684.597 527.134H700.152M710.521 527.134H726.076M736.445 527.134H752M654.353 362.949H669.907V378.503M669.907 378.503H695.831V391.897M669.907 378.503V386.28M695.831 409.612V468.373M695.831 409.612H707.929M695.831 409.612V391.897M707.929 409.612V468.373M707.929 409.612V349.987H726.94V362.949M726.94 362.949V468.373M726.94 362.949H751.919M669.907 386.28H654.353M669.907 386.28V391.897M669.907 450.226V468.373M669.907 450.226H654.353M669.907 450.226V391.897M669.907 391.897H695.831M733.853 374.182H748.543M655.217 211.725H677.684M677.684 211.725V229.008M677.684 211.725V191.85H694.967V223.823M694.967 223.823V306.78M694.967 223.823H709.657M709.657 223.823V298.736M709.657 223.823V215.794M723.483 229.008H739.902M723.483 229.008V215.794M723.483 229.008V298.736M739.902 229.008V306.78M739.902 229.008V211.725H751.919M677.684 306.78V229.008M677.684 229.008H655.217M723.483 215.794V207.405H709.657V215.794M723.483 215.794H709.657M723.483 298.736V306.78M723.483 298.736H709.657M709.657 306.78V298.736" stroke="#1F2833" stroke-width="4"/>
<g id="objects__clock">
<g id="objects__circle" filter="url(#filter0_d)">
<circle cx="481.141" cy="260.141" r="88.1415" fill="#F7F7F7"/>
<circle cx="481.141" cy="260.141" r="86.1415" stroke="#1F2833" stroke-width="4"/>
</g>
<g id="hour" clip-path="url(#clip0)">
<rect width="80" height="80" transform="translate(441 220)" fill="white"/>
<path id="line" d="M479 222.5C479 221.119 480.119 220 481.5 220V220C482.881 220 484 221.119 484 222.5V260H479V222.5Z" fill="#1F2833"/>
</g>
<g id="minute" clip-path="url(#clip1)">
<rect width="150" height="150" transform="translate(406 185)" fill="white"/>
<path id="line_2" d="M479 187C479 185.895 479.895 185 481 185V185C482.105 185 483 185.895 483 187V260H479V187Z" fill="#1F2833"/>
</g>
<g id="sec">
<rect width="150" height="150" transform="translate(406 185)" fill="white"/>
<path id="line_3" d="M480 186C480 185.448 480.448 185 481 185V185C481.552 185 482 185.448 482 186V280H480V186Z" fill="#1F2833"/>
</g>
<circle id="middle-circle" cx="481" cy="260" r="4" fill="#1F2833"/>
<g id="dash">
<rect id="5" x="517.289" y="323.622" width="2" height="5.19041" transform="rotate(-30 517.289 323.622)" fill="#1F2833" fill-opacity="0.7"/>
<rect id="11" x="442.384" y="193.883" width="2" height="5.282" transform="rotate(-30 442.384 193.883)" fill="#1F2833" fill-opacity="0.7"/>
<rect id="4" x="544.13" y="297.525" width="2" height="5.18127" transform="rotate(-60 544.13 297.525)" fill="#1F2833" fill-opacity="0.7"/>
<rect id="10" x="414.383" y="222.616" width="2" height="5.23963" transform="rotate(-60 414.383 222.616)" fill="#1F2833" fill-opacity="0.7"/>
<rect id="7" x="445.016" y="322.558" width="2" height="5.26406" transform="rotate(30 445.016 322.558)" fill="#1F2833" fill-opacity="0.7"/>
<rect id="1" x="519.884" y="192.883" width="2" height="5.28182" transform="rotate(30 519.884 192.883)" fill="#1F2833" fill-opacity="0.7"/>
<rect id="8" x="418.856" y="295.801" width="2" height="5.16653" transform="rotate(60 418.856 295.801)" fill="#1F2833" fill-opacity="0.7"/>
<rect id="2" x="548.617" y="220.884" width="2" height="5.21469" transform="rotate(60 548.617 220.884)" fill="#1F2833" fill-opacity="0.7"/>
<rect id="12" x="480" y="183" width="4" height="9" fill="#1F2833" fill-opacity="0.7"/>
<rect id="6" x="480" y="329" width="4" height="9" fill="#1F2833" fill-opacity="0.7"/>
<rect id="3" x="550" y="262" width="4" height="9" transform="rotate(-90 550 262)" fill="#1F2833" fill-opacity="0.7"/>
<rect id="9" x="404" y="262" width="4" height="9" transform="rotate(-90 404 262)" fill="#1F2833" fill-opacity="0.7"/>
</g>
</g>
<g id="objects__mouse">
<path id="mouse__main" d="M608.645 735.306C608.671 739.157 609.126 743.407 610.083 748.067C618.549 789.293 681.737 777.514 664.069 733.344C663.048 730.023 661.716 726.995 660.143 724.267M608.645 735.306C608.405 699.534 645.188 698.33 660.143 724.267M608.645 735.306C616.159 731.219 636.978 723.288 660.143 724.267" stroke="#1F2833" stroke-width="4"/>
<path id="mouse__wheel" d="M629.478 718.183C626.468 711.245 631.91 708.101 635.669 716.642C637.42 721.407 632.488 725.122 629.478 718.183Z" stroke="#1F2833" stroke-width="2"/>
</g>
<g id="objects__mug">
<g id="mug__shadow">
<path d="M158.683 724.155L158.683 699.883C164.45 698.498 182.118 699.883 187.003 710.683C190.958 719.427 161.676 725.854 158.683 724.155Z" fill="#49F1C1"/>
<path d="M141.241 797.147V726.288C132.069 726.288 127.178 726.288 113.725 716.783V771.223C110.885 773.297 102.232 777.168 104.44 786.657C108.216 802.886 139.391 793.614 141.241 797.147Z" fill="#49F1C1"/>
</g>
<path id="mug__main" d="M188.499 730.841C207.149 720.583 236.105 747.037 188.499 773.539M188.499 744.583C199.787 732.852 216.474 742.62 188.499 760.288M112.918 711.27V781.943C113.245 784.234 112.918 787.274 117.826 789.305C132.059 795.194 142.856 796.176 150.708 796.176M112.918 711.27C113.9 706.69 122.832 697.626 150.708 698.019M112.918 711.27C113.082 715.687 120.869 724.718 150.708 725.503M188.008 711.27V781.943C187.681 784.234 188.008 787.274 183.1 789.305C168.867 795.194 158.07 796.176 150.218 796.176M188.008 711.27C187.026 706.69 178.094 697.626 150.218 698.019M188.008 711.27C187.844 715.687 180.057 724.718 150.218 725.503" stroke="#1F2833" stroke-width="4"/>
</g>
<g id="laptop">
<path id="laptop__shadow" d="M230.706 593.208H281.175L238.323 661.198H581.872V691.719H369.107H214.02L265.398 607.062H223.835L230.706 593.208Z" fill="#49F1C1"/>
<g id="laptop__main">
<path fill-rule="evenodd" clip-rule="evenodd" d="M544.084 575.311V428.566C544.084 427.889 544.11 427.179 544.137 426.453C544.341 420.868 544.58 414.333 533.287 414.333H288.385C280.533 414.333 277.588 415.805 277.588 428.566V575.311C277.677 576.204 277.636 577.257 277.593 578.382C277.44 582.319 277.254 587.135 282.496 589.07L238.325 661.198H581.874L539.176 589.375C543.214 588.221 544.789 584.832 544.084 575.311Z" fill="#F7F7F7"/>
<path d="M581.874 661.198H238.325C233.613 667.087 239.634 674.776 243.233 677.885H576.967C580.238 675.074 585.801 667.802 581.874 661.198Z" fill="#F7F7F7"/>
<path d="M277.588 575.311C277.588 532.285 277.588 428.566 277.588 428.566M277.588 575.311V428.566M277.588 575.311C277.677 576.204 277.636 577.257 277.593 578.382C277.44 582.319 277.254 587.135 282.496 589.07M277.588 428.566C277.588 415.805 280.533 414.333 288.385 414.333H533.287C544.58 414.333 544.341 420.868 544.137 426.453C544.11 427.179 544.084 427.889 544.084 428.566V575.311C544.789 584.832 543.214 588.221 539.176 589.375M238.325 661.198L282.496 589.07M238.325 661.198H581.874M238.325 661.198C233.613 667.087 239.634 674.776 243.233 677.885H576.967C580.238 675.074 585.801 667.802 581.874 661.198M282.496 589.07C283.981 589.619 285.903 589.936 288.385 589.936C300.164 589.936 456.561 589.936 533.287 589.936C535.635 589.936 537.594 589.827 539.176 589.375M581.874 661.198L539.176 589.375M292.802 596.905H530.833L549.483 631.26H272.189L292.802 596.905ZM383.597 641.076C381.143 641.076 378.984 640.879 378.199 644.02L376.726 651.382C376.726 651.382 375.745 654.818 380.162 654.818C384.088 654.818 422.042 654.818 440.528 654.818C440.528 654.818 443.964 655.308 443.964 651.382L441.412 644.02C440.43 642.057 439.792 641.076 438.074 641.076C434.148 641.076 400.12 641.076 383.597 641.076ZM288.385 428.566H533.287V575.311H288.385V428.566Z" stroke="#1F2833" stroke-width="4"/>
</g>
<g id="laptop__monitor">
<path id="laptop__monitor-bg" d="M532.539 429.057H289.109V574.82H532.539V429.057Z" fill="#43576F"/>
<g id="laptop__text-animate">
<mask id="path-30-inside-1" fill="white">
<path d="M347.964 510.536H338.532L337.02 515H330.576L339.72 489.728H346.848L355.992 515H349.476L347.964 510.536ZM346.38 505.784L343.248 496.532L340.152 505.784H346.38Z"/>
<path d="M371.015 494.696C373.367 494.696 375.239 495.464 376.631 497C378.047 498.512 378.755 500.6 378.755 503.264V515H372.635V504.092C372.635 502.748 372.287 501.704 371.591 500.96C370.895 500.216 369.959 499.844 368.783 499.844C367.607 499.844 366.671 500.216 365.975 500.96C365.279 501.704 364.931 502.748 364.931 504.092V515H358.775V494.912H364.931V497.576C365.555 496.688 366.395 495.992 367.451 495.488C368.507 494.96 369.695 494.696 371.015 494.696Z"/>
<path d="M386.129 492.824C385.049 492.824 384.161 492.512 383.465 491.888C382.793 491.24 382.457 490.448 382.457 489.512C382.457 488.552 382.793 487.76 383.465 487.136C384.161 486.488 385.049 486.164 386.129 486.164C387.185 486.164 388.049 486.488 388.721 487.136C389.417 487.76 389.765 488.552 389.765 489.512C389.765 490.448 389.417 491.24 388.721 491.888C388.049 492.512 387.185 492.824 386.129 492.824ZM389.189 494.912V515H383.033V494.912H389.189Z"/>
<path d="M419.282 494.696C421.778 494.696 423.758 495.452 425.222 496.964C426.71 498.476 427.454 500.576 427.454 503.264V515H421.334V504.092C421.334 502.796 420.986 501.8 420.29 501.104C419.618 500.384 418.682 500.024 417.482 500.024C416.282 500.024 415.334 500.384 414.638 501.104C413.966 501.8 413.63 502.796 413.63 504.092V515H407.51V504.092C407.51 502.796 407.162 501.8 406.466 501.104C405.794 500.384 404.858 500.024 403.658 500.024C402.458 500.024 401.51 500.384 400.814 501.104C400.142 501.8 399.806 502.796 399.806 504.092V515H393.65V494.912H399.806V497.432C400.43 496.592 401.246 495.932 402.254 495.452C403.262 494.948 404.402 494.696 405.674 494.696C407.186 494.696 408.53 495.02 409.706 495.668C410.906 496.316 411.842 497.24 412.514 498.44C413.21 497.336 414.158 496.436 415.358 495.74C416.558 495.044 417.866 494.696 419.282 494.696Z"/>
<path d="M430.536 504.92C430.536 502.856 430.92 501.044 431.688 499.484C432.48 497.924 433.548 496.724 434.892 495.884C436.236 495.044 437.736 494.624 439.392 494.624C440.808 494.624 442.044 494.912 443.1 495.488C444.18 496.064 445.008 496.82 445.584 497.756V494.912H451.74V515H445.584V512.156C444.984 513.092 444.144 513.848 443.064 514.424C442.008 515 440.772 515.288 439.356 515.288C437.724 515.288 436.236 514.868 434.892 514.028C433.548 513.164 432.48 511.952 431.688 510.392C430.92 508.808 430.536 506.984 430.536 504.92ZM445.584 504.956C445.584 503.42 445.152 502.208 444.288 501.32C443.448 500.432 442.416 499.988 441.192 499.988C439.968 499.988 438.924 500.432 438.06 501.32C437.22 502.184 436.8 503.384 436.8 504.92C436.8 506.456 437.22 507.68 438.06 508.592C438.924 509.48 439.968 509.924 441.192 509.924C442.416 509.924 443.448 509.48 444.288 508.592C445.152 507.704 445.584 506.492 445.584 504.956Z"/>
<path d="M467.389 509.78V515H464.257C462.025 515 460.285 514.46 459.037 513.38C457.789 512.276 457.165 510.488 457.165 508.016V500.024H454.717V494.912H457.165V490.016H463.321V494.912H467.353V500.024H463.321V508.088C463.321 508.688 463.465 509.12 463.753 509.384C464.041 509.648 464.521 509.78 465.193 509.78H467.389Z"/>
<path d="M489.754 504.632C489.754 505.208 489.718 505.808 489.646 506.432H475.714C475.81 507.68 476.206 508.64 476.902 509.312C477.622 509.96 478.498 510.284 479.53 510.284C481.066 510.284 482.134 509.636 482.734 508.34H489.286C488.95 509.66 488.338 510.848 487.45 511.904C486.586 512.96 485.494 513.788 484.174 514.388C482.854 514.988 481.378 515.288 479.746 515.288C477.778 515.288 476.026 514.868 474.49 514.028C472.954 513.188 471.754 511.988 470.89 510.428C470.026 508.868 469.594 507.044 469.594 504.956C469.594 502.868 470.014 501.044 470.854 499.484C471.718 497.924 472.918 496.724 474.454 495.884C475.99 495.044 477.754 494.624 479.746 494.624C481.69 494.624 483.418 495.032 484.93 495.848C486.442 496.664 487.618 497.828 488.458 499.34C489.322 500.852 489.754 502.616 489.754 504.632ZM483.454 503.012C483.454 501.956 483.094 501.116 482.374 500.492C481.654 499.868 480.754 499.556 479.674 499.556C478.642 499.556 477.766 499.856 477.046 500.456C476.35 501.056 475.918 501.908 475.75 503.012H483.454Z"/>
</mask>
<path d="M347.964 510.536H338.532L337.02 515H330.576L339.72 489.728H346.848L355.992 515H349.476L347.964 510.536ZM346.38 505.784L343.248 496.532L340.152 505.784H346.38Z" stroke="#49F1C1" stroke-width="2" mask="url(#path-30-inside-1)"/>
<path d="M371.015 494.696C373.367 494.696 375.239 495.464 376.631 497C378.047 498.512 378.755 500.6 378.755 503.264V515H372.635V504.092C372.635 502.748 372.287 501.704 371.591 500.96C370.895 500.216 369.959 499.844 368.783 499.844C367.607 499.844 366.671 500.216 365.975 500.96C365.279 501.704 364.931 502.748 364.931 504.092V515H358.775V494.912H364.931V497.576C365.555 496.688 366.395 495.992 367.451 495.488C368.507 494.96 369.695 494.696 371.015 494.696Z" stroke="#49F1C1" stroke-width="2" mask="url(#path-30-inside-1)"/>
<path d="M386.129 492.824C385.049 492.824 384.161 492.512 383.465 491.888C382.793 491.24 382.457 490.448 382.457 489.512C382.457 488.552 382.793 487.76 383.465 487.136C384.161 486.488 385.049 486.164 386.129 486.164C387.185 486.164 388.049 486.488 388.721 487.136C389.417 487.76 389.765 488.552 389.765 489.512C389.765 490.448 389.417 491.24 388.721 491.888C388.049 492.512 387.185 492.824 386.129 492.824ZM389.189 494.912V515H383.033V494.912H389.189Z" stroke="#49F1C1" stroke-width="2" mask="url(#path-30-inside-1)"/>
<path d="M419.282 494.696C421.778 494.696 423.758 495.452 425.222 496.964C426.71 498.476 427.454 500.576 427.454 503.264V515H421.334V504.092C421.334 502.796 420.986 501.8 420.29 501.104C419.618 500.384 418.682 500.024 417.482 500.024C416.282 500.024 415.334 500.384 414.638 501.104C413.966 501.8 413.63 502.796 413.63 504.092V515H407.51V504.092C407.51 502.796 407.162 501.8 406.466 501.104C405.794 500.384 404.858 500.024 403.658 500.024C402.458 500.024 401.51 500.384 400.814 501.104C400.142 501.8 399.806 502.796 399.806 504.092V515H393.65V494.912H399.806V497.432C400.43 496.592 401.246 495.932 402.254 495.452C403.262 494.948 404.402 494.696 405.674 494.696C407.186 494.696 408.53 495.02 409.706 495.668C410.906 496.316 411.842 497.24 412.514 498.44C413.21 497.336 414.158 496.436 415.358 495.74C416.558 495.044 417.866 494.696 419.282 494.696Z" stroke="#49F1C1" stroke-width="2" mask="url(#path-30-inside-1)"/>
<path d="M430.536 504.92C430.536 502.856 430.92 501.044 431.688 499.484C432.48 497.924 433.548 496.724 434.892 495.884C436.236 495.044 437.736 494.624 439.392 494.624C440.808 494.624 442.044 494.912 443.1 495.488C444.18 496.064 445.008 496.82 445.584 497.756V494.912H451.74V515H445.584V512.156C444.984 513.092 444.144 513.848 443.064 514.424C442.008 515 440.772 515.288 439.356 515.288C437.724 515.288 436.236 514.868 434.892 514.028C433.548 513.164 432.48 511.952 431.688 510.392C430.92 508.808 430.536 506.984 430.536 504.92ZM445.584 504.956C445.584 503.42 445.152 502.208 444.288 501.32C443.448 500.432 442.416 499.988 441.192 499.988C439.968 499.988 438.924 500.432 438.06 501.32C437.22 502.184 436.8 503.384 436.8 504.92C436.8 506.456 437.22 507.68 438.06 508.592C438.924 509.48 439.968 509.924 441.192 509.924C442.416 509.924 443.448 509.48 444.288 508.592C445.152 507.704 445.584 506.492 445.584 504.956Z" stroke="#49F1C1" stroke-width="2" mask="url(#path-30-inside-1)"/>
<path d="M467.389 509.78V515H464.257C462.025 515 460.285 514.46 459.037 513.38C457.789 512.276 457.165 510.488 457.165 508.016V500.024H454.717V494.912H457.165V490.016H463.321V494.912H467.353V500.024H463.321V508.088C463.321 508.688 463.465 509.12 463.753 509.384C464.041 509.648 464.521 509.78 465.193 509.78H467.389Z" stroke="#49F1C1" stroke-width="2" mask="url(#path-30-inside-1)"/>
<path d="M489.754 504.632C489.754 505.208 489.718 505.808 489.646 506.432H475.714C475.81 507.68 476.206 508.64 476.902 509.312C477.622 509.96 478.498 510.284 479.53 510.284C481.066 510.284 482.134 509.636 482.734 508.34H489.286C488.95 509.66 488.338 510.848 487.45 511.904C486.586 512.96 485.494 513.788 484.174 514.388C482.854 514.988 481.378 515.288 479.746 515.288C477.778 515.288 476.026 514.868 474.49 514.028C472.954 513.188 471.754 511.988 470.89 510.428C470.026 508.868 469.594 507.044 469.594 504.956C469.594 502.868 470.014 501.044 470.854 499.484C471.718 497.924 472.918 496.724 474.454 495.884C475.99 495.044 477.754 494.624 479.746 494.624C481.69 494.624 483.418 495.032 484.93 495.848C486.442 496.664 487.618 497.828 488.458 499.34C489.322 500.852 489.754 502.616 489.754 504.632ZM483.454 503.012C483.454 501.956 483.094 501.116 482.374 500.492C481.654 499.868 480.754 499.556 479.674 499.556C478.642 499.556 477.766 499.856 477.046 500.456C476.35 501.056 475.918 501.908 475.75 503.012H483.454Z" stroke="#49F1C1" stroke-width="2" mask="url(#path-30-inside-1)"/>
</g>
<g id="laptop__text-design" filter="url(#filter1_d)">
<path d="M368.192 519.572C366.432 519.572 364.643 518.795 362.824 517.24L362.472 519H356.136L362.12 491.016L368.632 490.136L363.352 514.82C364.173 515.407 365.009 515.7 365.86 515.7C367.532 515.7 368.999 514.732 370.26 512.796C371.551 510.86 372.548 508.396 373.252 505.404C373.956 502.412 374.308 499.391 374.308 496.34C374.308 493.465 373.736 491.368 372.592 490.048C371.477 488.699 369.908 488.024 367.884 488.024C365.684 488.024 363.704 488.464 361.944 489.344C360.213 490.195 358.849 491.427 357.852 493.04C356.855 494.653 356.356 496.545 356.356 498.716C356.356 499.801 356.459 500.564 356.664 501.004C356.869 501.415 356.972 501.649 356.972 501.708C355.447 501.708 354.273 501.385 353.452 500.74C352.66 500.095 352.264 499.053 352.264 497.616C352.264 495.621 353.012 493.729 354.508 491.94C356.004 490.151 357.999 488.713 360.492 487.628C363.015 486.543 365.728 486 368.632 486C372.651 486 375.613 487.188 377.52 489.564C379.427 491.94 380.38 494.976 380.38 498.672C380.38 502.016 379.808 505.316 378.664 508.572C377.549 511.799 376.053 514.439 374.176 516.492C372.299 518.545 370.304 519.572 368.192 519.572ZM387.468 519.264C385.297 519.264 383.61 518.707 382.408 517.592C381.205 516.448 380.604 514.673 380.604 512.268C380.604 510.244 381 508.015 381.792 505.58C382.584 503.145 383.874 501.048 385.664 499.288C387.453 497.499 389.726 496.604 392.484 496.604C395.71 496.604 397.324 498.012 397.324 500.828C397.324 502.471 396.854 503.981 395.916 505.36C394.977 506.739 393.73 507.853 392.176 508.704C390.621 509.525 388.964 509.995 387.204 510.112C387.145 510.992 387.116 511.579 387.116 511.872C387.116 513.309 387.365 514.292 387.864 514.82C388.362 515.319 389.169 515.568 390.284 515.568C391.868 515.568 393.217 515.201 394.332 514.468C395.476 513.735 396.722 512.62 398.072 511.124H399.568C396.312 516.551 392.278 519.264 387.468 519.264ZM387.556 508C388.641 507.941 389.668 507.56 390.636 506.856C391.633 506.152 392.425 505.257 393.012 504.172C393.628 503.087 393.936 501.943 393.936 500.74C393.936 499.537 393.569 498.936 392.836 498.936C391.78 498.936 390.738 499.86 389.712 501.708C388.714 503.556 387.996 505.653 387.556 508ZM403.079 519.264C401.671 519.264 400.482 519 399.514 518.472C398.546 517.915 397.828 517.211 397.358 516.36C396.889 515.48 396.654 514.571 396.654 513.632C396.654 512.664 396.889 511.828 397.358 511.124C397.798 510.391 398.341 509.863 398.987 509.54C400.131 507.487 401.128 505.419 401.979 503.336C402.829 501.224 403.636 498.951 404.399 496.516L410.911 495.636C411.057 499.391 411.307 503.453 411.659 507.824C411.805 509.584 411.879 510.86 411.879 511.652C411.879 512.327 411.82 512.884 411.703 513.324C413.081 512.532 414.137 511.799 414.871 511.124H416.719C414.841 513.295 412.597 515.128 409.987 516.624C409.136 517.533 408.08 518.208 406.819 518.648C405.587 519.059 404.34 519.264 403.079 519.264ZM401.671 515.788C402.756 515.788 403.665 515.465 404.399 514.82C405.132 514.175 405.499 513.133 405.499 511.696C405.499 510.816 405.411 509.584 405.235 508C404.941 504.656 404.751 502.412 404.663 501.268C403.959 503.585 402.771 506.357 401.099 509.584C401.773 509.936 402.111 510.449 402.111 511.124C402.111 511.681 401.92 512.18 401.539 512.62C401.187 513.06 400.732 513.28 400.175 513.28C399.559 513.28 399.163 513.089 398.987 512.708C398.987 513.764 399.192 514.541 399.603 515.04C400.043 515.539 400.732 515.788 401.671 515.788ZM422.211 494.624C421.243 494.624 420.422 494.287 419.747 493.612C419.073 492.937 418.735 492.116 418.735 491.148C418.735 490.18 419.073 489.359 419.747 488.684C420.422 487.98 421.243 487.628 422.211 487.628C423.179 487.628 424.001 487.98 424.675 488.684C425.379 489.359 425.731 490.18 425.731 491.148C425.731 492.116 425.379 492.937 424.675 493.612C424.001 494.287 423.179 494.624 422.211 494.624ZM419.219 519.264C417.811 519.264 416.667 518.824 415.787 517.944C414.937 517.064 414.511 515.744 414.511 513.984C414.511 513.251 414.629 512.297 414.863 511.124L417.855 497H424.191L421.023 511.96C420.906 512.4 420.847 512.869 420.847 513.368C420.847 513.955 420.979 514.38 421.243 514.644C421.537 514.879 422.006 514.996 422.651 514.996C423.502 514.996 424.294 514.644 425.027 513.94C425.761 513.207 426.289 512.268 426.611 511.124H428.459C427.374 514.292 425.981 516.448 424.279 517.592C422.578 518.707 420.891 519.264 419.219 519.264ZM434.382 530C432.974 530 431.8 529.633 430.862 528.9C429.923 528.167 429.454 527.111 429.454 525.732C429.454 524.06 430.128 522.711 431.478 521.684C432.827 520.687 434.543 519.851 436.626 519.176L437.154 516.844C435.658 518.457 433.898 519.264 431.874 519.264C430.202 519.264 428.808 518.692 427.694 517.548C426.579 516.404 426.022 514.615 426.022 512.18C426.022 510.009 426.447 507.736 427.298 505.36C428.178 502.955 429.468 500.931 431.17 499.288C432.9 497.616 434.954 496.78 437.33 496.78C438.532 496.78 439.427 496.985 440.014 497.396C440.6 497.807 440.894 498.349 440.894 499.024V499.288L441.378 497H447.714L443.358 517.416C444.766 516.947 445.895 516.243 446.746 515.304C447.596 514.365 448.315 512.972 448.902 511.124H450.75C449.958 513.735 448.887 515.656 447.538 516.888C446.188 518.091 444.663 518.912 442.962 519.352L442.302 522.52C441.715 525.365 440.703 527.316 439.266 528.372C437.828 529.457 436.2 530 434.382 530ZM434.734 514.996C435.408 514.996 436.098 514.688 436.802 514.072C437.506 513.456 437.99 512.62 438.254 511.564L440.498 501.136C440.498 500.784 440.351 500.432 440.058 500.08C439.764 499.699 439.31 499.508 438.694 499.508C437.52 499.508 436.464 500.197 435.526 501.576C434.587 502.925 433.854 504.568 433.326 506.504C432.798 508.411 432.534 510.097 432.534 511.564C432.534 513.031 432.739 513.969 433.15 514.38C433.59 514.791 434.118 514.996 434.734 514.996ZM433.37 526.568C433.868 526.568 434.352 526.231 434.822 525.556C435.291 524.881 435.658 523.913 435.922 522.652L436.186 521.376C433.311 522.432 431.874 523.679 431.874 525.116C431.874 525.497 432.006 525.835 432.27 526.128C432.534 526.421 432.9 526.568 433.37 526.568ZM464.031 519.264C462.476 519.264 461.347 518.795 460.643 517.856C459.939 516.917 459.587 515.729 459.587 514.292C459.587 513.676 459.66 512.987 459.807 512.224C459.953 511.432 460.1 510.669 460.247 509.936C460.423 509.203 460.54 508.733 460.599 508.528C460.833 507.501 461.053 506.489 461.259 505.492C461.464 504.495 461.567 503.688 461.567 503.072C461.567 501.576 461.039 500.828 459.983 500.828C459.22 500.828 458.545 501.209 457.959 501.972C457.372 502.705 456.903 503.673 456.551 504.876L453.559 519H447.223L451.887 497H458.223L457.739 499.288C459.205 497.645 460.921 496.824 462.887 496.824C464.383 496.824 465.571 497.235 466.451 498.056C467.331 498.877 467.771 500.124 467.771 501.796C467.771 502.647 467.668 503.6 467.463 504.656C467.257 505.683 466.964 506.944 466.583 508.44C466.348 509.349 466.128 510.244 465.923 511.124C465.747 511.975 465.659 512.649 465.659 513.148C465.659 513.735 465.791 514.189 466.055 514.512C466.319 514.835 466.773 514.996 467.419 514.996C468.123 514.996 468.607 514.908 468.871 514.732C468.695 516.228 468.152 517.357 467.243 518.12C466.363 518.883 465.292 519.264 464.031 519.264Z" fill="#49F1C1"/>
</g>
</g>
</g>
<g id="objects__cp">
<g id="cp__main">
<path d="M195.149 658.994C194.985 659.485 194.167 660.466 192.204 660.466H140.181C138.107 660.466 137.128 660.466 136.955 659.888C136.927 660.512 136.981 661.694 137.236 663.902C137.379 665.135 138.382 665.374 139.199 665.374H192.204C193.383 665.374 195.64 664.392 196.13 663.902L228.522 598.136C229.685 592.247 228.522 593.719 228.522 593.719L199.693 650.106L195.149 658.994Z" fill="#49F1C1"/>
<path d="M228.522 593.719C229.013 592.738 229.994 590.284 227.05 590.284H181.898C179.542 589.891 177.644 591.756 176.99 592.738L142.127 650.106M228.522 593.719C228.522 593.719 229.685 592.247 228.522 598.136L196.13 663.902C195.64 664.392 193.383 665.374 192.204 665.374M228.522 593.719L199.693 650.106M192.204 660.466C194.167 660.466 194.985 659.485 195.149 658.994L199.693 650.106M192.204 660.466C190.241 660.466 156.704 660.466 140.181 660.466M192.204 660.466H140.181M140.181 660.466C138.107 660.466 137.128 660.466 136.955 659.888M192.204 665.374C191.025 665.374 156.049 665.374 139.199 665.374M192.204 665.374H139.199M139.199 665.374C138.382 665.374 137.379 665.135 137.236 663.902C136.981 661.694 136.927 660.512 136.955 659.888M137.075 658.994C137.274 658.424 137.67 657.635 138.218 656.54L142.127 650.106M137.075 658.994C137.445 659.774 137.014 658.555 136.955 659.888M137.075 658.994C136.936 659.388 136.892 659.677 136.955 659.888M142.127 650.106H199.693" stroke="#1F2833" stroke-width="4"/>
</g>
<circle id="cp__button" cx="166.373" cy="655.014" r="2.94471" fill="#1F2833"/>
</g>
<g id="objects__plant">
<path id="plant__pot" d="M734.742 100.722L727.38 144.892H676.338L667.504 100.722M734.742 100.722H667.504M734.742 100.722H738.668V84.5256H664.56V100.722H667.504" stroke="#1F2833" stroke-width="4"/>
<path id="plant__leaf" d="M705.863 83.544H723.619C723.995 79.8514 724.225 66.331 744.067 41.7895C738.33 45.042 730.658 48.9704 723.619 54.5877M705.863 83.544C705.486 79.204 707.312 71.634 711.778 66.3665M705.863 83.544H693.744M723.619 54.5877C722.586 48.8398 724.859 33.8363 729.819 15.6575C724.84 21.6224 714.149 36.0519 711.218 46.0502M723.619 54.5877C718.395 58.7563 715.553 61.9138 711.778 66.3665M711.218 46.0502C709.985 57.6392 710.75 63.6208 711.778 66.3665M711.218 46.0502C711.118 41.6002 711.287 30.655 712.759 22.4746C709.736 26.7293 705.336 34.3939 701.529 44.0619M693.744 83.544H678.379C678.379 74.4546 668.486 57.0416 656.707 40.808C662.344 43.9893 674.485 50.879 677.398 53.4354M693.744 83.544C693.628 76.6246 694.403 69.8212 695.73 63.3769M693.744 83.544C692.805 78.1472 688.22 64.5699 677.398 53.4354M701.529 44.0619C700.249 36.4874 696.394 18.2707 691.208 6C689.705 15.4681 686.867 36.7336 687.544 46.0502M701.529 44.0619C699.239 49.8774 697.163 56.4178 695.73 63.3769M687.544 46.0502C690.926 51.9583 694.41 60.063 695.73 63.3769M687.544 46.0502C684.538 41.9789 676.834 32.3025 670.07 26.1671C672.513 32.7001 677.398 47.3 677.398 53.4354" stroke="#1F2833" stroke-width="3"/>
</g>
<g id="objects__notebook">
<path id="notebook__main" d="M419.118 699.97L311.636 698.988L275.318 809.906M419.118 699.97L394.579 809.906H275.318M419.118 699.97V710.276L397.524 812.85H275.318V809.906" stroke="#1F2833" stroke-width="3"/>
<path id="notebook__string" d="M316.544 704.878L286.606 799.108" stroke="#1F2833" stroke-width="3" stroke-dasharray="5 6"/>
</g>
<path id="objects__ballpen" d="M452.422 718.237L455.384 710.767L460.831 713.252L457.869 720.722M452.422 718.237L457.869 720.722M452.422 718.237L429.568 775.883M457.869 720.722L436.074 778.228M429.568 775.883L428.492 778.596L428.27 788.535L434.919 781.144L436.074 778.228M429.568 775.883L436.074 778.228" stroke="#1F2833" stroke-width="3"/>
</g>
<defs>
<filter id="filter0_d" x="389" y="172" width="180.283" height="185.283" filterUnits="userSpaceOnUse" color-interpolation-filters="sRGB">
<feFlood flood-opacity="0" result="BackgroundImageFix"/>
<feColorMatrix in="SourceAlpha" type="matrix" values="0 0 0 0 0 0 0 0 0 0 0 0 0 0 0 0 0 0 127 0" result="hardAlpha"/>
<feMorphology radius="1" operator="erode" in="SourceAlpha" result="effect1_dropShadow"/>
<feOffset dx="-5" dy="10"/>
<feColorMatrix type="matrix" values="0 0 0 0 0.286275 0 0 0 0 0.945098 0 0 0 0 0.756863 0 0 0 1 0"/>
<feBlend mode="normal" in2="BackgroundImageFix" result="effect1_dropShadow"/>
<feBlend mode="normal" in="SourceGraphic" in2="effect1_dropShadow" result="shape"/>
</filter>
<filter id="filter1_d" x="348.264" y="486" width="124.607" height="52" filterUnits="userSpaceOnUse" color-interpolation-filters="sRGB">
<feFlood flood-opacity="0" result="BackgroundImageFix"/>
<feColorMatrix in="SourceAlpha" type="matrix" values="0 0 0 0 0 0 0 0 0 0 0 0 0 0 0 0 0 0 127 0" result="hardAlpha"/>
<feOffset dy="4"/>
<feGaussianBlur stdDeviation="2"/>
<feComposite in2="hardAlpha" operator="out"/>
<feColorMatrix type="matrix" values="0 0 0 0 1 0 0 0 0 0.301961 0 0 0 0 0.352941 0 0 0 1 0"/>
<feBlend mode="normal" in2="BackgroundImageFix" result="effect1_dropShadow"/>
<feBlend mode="normal" in="SourceGraphic" in2="effect1_dropShadow" result="shape"/>
</filter>
<clipPath id="clip0">
<rect width="80" height="80" fill="white" transform="translate(441 220)"/>
</clipPath>
<clipPath id="clip1">
<rect width="150" height="150" fill="white" transform="translate(406 185)"/>
</clipPath>
</defs>
</svg>
