<svg width="550" height="519" viewBox="0 0 550 519" fill="none" xmlns="http://www.w3.org/2000/svg">
<g id="pattern-bg">
<path id="blue-blob" fill-rule="evenodd" clip-rule="evenodd" d="M258.888 108.065C306.526 58.595 392.537 146.516 463.798 246.951C535.059 347.386 583.646 395.11 521.406 459.744C459.167 524.378 326.319 550.078 258.888 459.744C191.457 369.411 211.251 157.534 258.888 108.065Z" fill="url(#paint0_linear)"/>
<path id="grey-blob" fill-rule="evenodd" clip-rule="evenodd" d="M11.7458 240.219C-29.1869 200.91 43.5621 129.934 126.665 71.1322C209.767 12.3291 249.257 -27.764 302.737 23.595C356.217 74.9532 377.481 184.576 302.737 240.219C227.992 295.862 52.6785 279.528 11.7458 240.219V240.219Z" fill="#EDEDED"/>
<path id="dots" fill-rule="evenodd" clip-rule="evenodd" d="M526.326 504.841C526.954 504.841 527.556 505.091 528 505.535C528.444 505.978 528.693 506.58 528.693 507.208C528.693 507.836 528.444 508.437 528 508.881C527.556 509.325 526.954 509.574 526.326 509.574C525.698 509.574 525.096 509.325 524.652 508.881C524.208 508.437 523.959 507.836 523.959 507.208C523.959 506.58 524.208 505.978 524.652 505.535C525.096 505.091 525.698 504.841 526.326 504.841ZM508.966 504.841C509.594 504.841 510.196 505.091 510.64 505.535C511.084 505.978 511.333 506.58 511.333 507.208C511.333 507.836 511.084 508.437 510.64 508.881C510.196 509.325 509.594 509.574 508.966 509.574C508.338 509.574 507.736 509.325 507.292 508.881C506.848 508.437 506.598 507.836 506.598 507.208C506.598 506.58 506.848 505.978 507.292 505.535C507.736 505.091 508.338 504.841 508.966 504.841ZM491.606 504.841C492.233 504.841 492.836 505.091 493.28 505.535C493.724 505.978 493.973 506.58 493.973 507.208C493.973 507.836 493.724 508.437 493.28 508.881C492.836 509.325 492.233 509.574 491.606 509.574C490.978 509.574 490.376 509.325 489.932 508.881C489.488 508.437 489.238 507.836 489.238 507.208C489.238 506.58 489.488 505.978 489.932 505.535C490.376 505.091 490.978 504.841 491.606 504.841ZM474.246 504.841C474.873 504.841 475.476 505.091 475.919 505.535C476.363 505.978 476.613 506.58 476.613 507.208C476.613 507.836 476.363 508.437 475.919 508.881C475.476 509.325 474.873 509.574 474.246 509.574C473.618 509.574 473.016 509.325 472.572 508.881C472.128 508.437 471.878 507.836 471.878 507.208C471.878 506.58 472.128 505.978 472.572 505.535C473.016 505.091 473.618 504.841 474.246 504.841ZM456.885 504.841C457.513 504.841 458.115 505.091 458.559 505.535C459.003 505.978 459.253 506.58 459.253 507.208C459.253 507.836 459.003 508.437 458.559 508.881C458.115 509.325 457.513 509.574 456.885 509.574C456.258 509.574 455.655 509.325 455.212 508.881C454.768 508.437 454.518 507.836 454.518 507.208C454.518 506.58 454.768 505.978 455.212 505.535C455.655 505.091 456.258 504.841 456.885 504.841ZM439.525 504.841C440.153 504.841 440.755 505.091 441.199 505.535C441.643 505.978 441.893 506.58 441.893 507.208C441.893 507.836 441.643 508.437 441.199 508.881C440.755 509.325 440.153 509.574 439.525 509.574C438.898 509.574 438.295 509.325 437.851 508.881C437.408 508.437 437.158 507.836 437.158 507.208C437.158 506.58 437.408 505.978 437.851 505.535C438.295 505.091 438.898 504.841 439.525 504.841ZM422.165 504.841C422.793 504.841 423.395 505.091 423.839 505.535C424.283 505.978 424.533 506.58 424.533 507.208C424.533 507.836 424.283 508.437 423.839 508.881C423.395 509.325 422.793 509.574 422.165 509.574C421.537 509.574 420.935 509.325 420.491 508.881C420.047 508.437 419.798 507.836 419.798 507.208C419.798 506.58 420.047 505.978 420.491 505.535C420.935 505.091 421.537 504.841 422.165 504.841ZM404.805 504.841C405.433 504.841 406.035 505.091 406.479 505.535C406.923 505.978 407.173 506.58 407.173 507.208C407.173 507.836 406.923 508.437 406.479 508.881C406.035 509.325 405.433 509.574 404.805 509.574C404.177 509.574 403.575 509.325 403.131 508.881C402.687 508.437 402.438 507.836 402.438 507.208C402.438 506.58 402.687 505.978 403.131 505.535C403.575 505.091 404.177 504.841 404.805 504.841ZM387.445 504.841C388.073 504.841 388.675 505.091 389.119 505.535C389.563 505.978 389.812 506.58 389.812 507.208C389.812 507.836 389.563 508.437 389.119 508.881C388.675 509.325 388.073 509.574 387.445 509.574C386.817 509.574 386.215 509.325 385.771 508.881C385.327 508.437 385.078 507.836 385.078 507.208C385.078 506.58 385.327 505.978 385.771 505.535C386.215 505.091 386.817 504.841 387.445 504.841ZM387.445 487.488C388.073 487.488 388.675 487.737 389.119 488.181C389.563 488.624 389.812 489.226 389.812 489.854C389.812 490.482 389.563 491.084 389.119 491.527C388.675 491.971 388.073 492.22 387.445 492.22C386.817 492.22 386.215 491.971 385.771 491.527C385.327 491.084 385.078 490.482 385.078 489.854C385.078 489.226 385.327 488.624 385.771 488.181C386.215 487.737 386.817 487.488 387.445 487.488ZM526.326 487.488C526.954 487.488 527.556 487.737 528 488.181C528.444 488.624 528.693 489.226 528.693 489.854C528.693 490.482 528.444 491.084 528 491.527C527.556 491.971 526.954 492.22 526.326 492.22C525.698 492.22 525.096 491.971 524.652 491.527C524.208 491.084 523.959 490.482 523.959 489.854C523.959 489.226 524.208 488.624 524.652 488.181C525.096 487.737 525.698 487.488 526.326 487.488ZM508.966 487.488C509.594 487.488 510.196 487.737 510.64 488.181C511.084 488.624 511.333 489.226 511.333 489.854C511.333 490.482 511.084 491.084 510.64 491.527C510.196 491.971 509.594 492.22 508.966 492.22C508.338 492.22 507.736 491.971 507.292 491.527C506.848 491.084 506.598 490.482 506.598 489.854C506.598 489.226 506.848 488.624 507.292 488.181C507.736 487.737 508.338 487.488 508.966 487.488ZM491.606 487.488C492.233 487.488 492.836 487.737 493.28 488.181C493.724 488.624 493.973 489.226 493.973 489.854C493.973 490.482 493.724 491.084 493.28 491.527C492.836 491.971 492.233 492.22 491.606 492.22C490.978 492.22 490.376 491.971 489.932 491.527C489.488 491.084 489.238 490.482 489.238 489.854C489.238 489.226 489.488 488.624 489.932 488.181C490.376 487.737 490.978 487.488 491.606 487.488ZM474.246 487.488C474.873 487.488 475.476 487.737 475.919 488.181C476.363 488.624 476.613 489.226 476.613 489.854C476.613 490.482 476.363 491.084 475.919 491.527C475.476 491.971 474.873 492.22 474.246 492.22C473.618 492.22 473.016 491.971 472.572 491.527C472.128 491.084 471.878 490.482 471.878 489.854C471.878 489.226 472.128 488.624 472.572 488.181C473.016 487.737 473.618 487.488 474.246 487.488ZM456.885 487.488C457.513 487.488 458.115 487.737 458.559 488.181C459.003 488.624 459.253 489.226 459.253 489.854C459.253 490.482 459.003 491.084 458.559 491.527C458.115 491.971 457.513 492.22 456.885 492.22C456.258 492.22 455.655 491.971 455.212 491.527C454.768 491.084 454.518 490.482 454.518 489.854C454.518 489.226 454.768 488.624 455.212 488.181C455.655 487.737 456.258 487.488 456.885 487.488ZM439.525 487.488C440.153 487.488 440.755 487.737 441.199 488.181C441.643 488.624 441.893 489.226 441.893 489.854C441.893 490.482 441.643 491.084 441.199 491.527C440.755 491.971 440.153 492.22 439.525 492.22C438.898 492.22 438.295 491.971 437.851 491.527C437.408 491.084 437.158 490.482 437.158 489.854C437.158 489.226 437.408 488.624 437.851 488.181C438.295 487.737 438.898 487.488 439.525 487.488ZM422.165 487.488C422.793 487.488 423.395 487.737 423.839 488.181C424.283 488.624 424.533 489.226 424.533 489.854C424.533 490.482 424.283 491.084 423.839 491.527C423.395 491.971 422.793 492.22 422.165 492.22C421.537 492.22 420.935 491.971 420.491 491.527C420.047 491.084 419.798 490.482 419.798 489.854C419.798 489.226 420.047 488.624 420.491 488.181C420.935 487.737 421.537 487.488 422.165 487.488ZM404.805 487.488C405.433 487.488 406.035 487.737 406.479 488.181C406.923 488.624 407.173 489.226 407.173 489.854C407.173 490.482 406.923 491.084 406.479 491.527C406.035 491.971 405.433 492.22 404.805 492.22C404.177 492.22 403.575 491.971 403.131 491.527C402.687 491.084 402.438 490.482 402.438 489.854C402.438 489.226 402.687 488.624 403.131 488.181C403.575 487.737 404.177 487.488 404.805 487.488ZM404.805 470.134C405.433 470.134 406.035 470.383 406.479 470.827C406.923 471.271 407.173 471.872 407.173 472.5C407.173 473.128 406.923 473.73 406.479 474.173C406.035 474.617 405.433 474.867 404.805 474.867C404.177 474.867 403.575 474.617 403.131 474.173C402.687 473.73 402.438 473.128 402.438 472.5C402.438 471.872 402.687 471.271 403.131 470.827C403.575 470.383 404.177 470.134 404.805 470.134ZM422.165 470.134C422.793 470.134 423.395 470.383 423.839 470.827C424.283 471.271 424.533 471.872 424.533 472.5C424.533 473.128 424.283 473.73 423.839 474.173C423.395 474.617 422.793 474.867 422.165 474.867C421.537 474.867 420.935 474.617 420.491 474.173C420.047 473.73 419.798 473.128 419.798 472.5C419.798 471.872 420.047 471.271 420.491 470.827C420.935 470.383 421.537 470.134 422.165 470.134ZM439.525 470.134C440.153 470.134 440.755 470.383 441.199 470.827C441.643 471.271 441.893 471.872 441.893 472.5C441.893 473.128 441.643 473.73 441.199 474.173C440.755 474.617 440.153 474.867 439.525 474.867C438.898 474.867 438.295 474.617 437.851 474.173C437.408 473.73 437.158 473.128 437.158 472.5C437.158 471.872 437.408 471.271 437.851 470.827C438.295 470.383 438.898 470.134 439.525 470.134ZM456.885 470.134C457.513 470.134 458.115 470.383 458.559 470.827C459.003 471.271 459.253 471.872 459.253 472.5C459.253 473.128 459.003 473.73 458.559 474.173C458.115 474.617 457.513 474.867 456.885 474.867C456.258 474.867 455.655 474.617 455.212 474.173C454.768 473.73 454.518 473.128 454.518 472.5C454.518 471.872 454.768 471.271 455.212 470.827C455.655 470.383 456.258 470.134 456.885 470.134ZM474.246 470.134C474.873 470.134 475.476 470.383 475.919 470.827C476.363 471.271 476.613 471.872 476.613 472.5C476.613 473.128 476.363 473.73 475.919 474.173C475.476 474.617 474.873 474.867 474.246 474.867C473.618 474.867 473.016 474.617 472.572 474.173C472.128 473.73 471.878 473.128 471.878 472.5C471.878 471.872 472.128 471.271 472.572 470.827C473.016 470.383 473.618 470.134 474.246 470.134ZM491.606 470.134C492.233 470.134 492.836 470.383 493.28 470.827C493.724 471.271 493.973 471.872 493.973 472.5C493.973 473.128 493.724 473.73 493.28 474.173C492.836 474.617 492.233 474.867 491.606 474.867C490.978 474.867 490.376 474.617 489.932 474.173C489.488 473.73 489.238 473.128 489.238 472.5C489.238 471.872 489.488 471.271 489.932 470.827C490.376 470.383 490.978 470.134 491.606 470.134ZM508.966 470.134C509.594 470.134 510.196 470.383 510.64 470.827C511.084 471.271 511.333 471.872 511.333 472.5C511.333 473.128 511.084 473.73 510.64 474.173C510.196 474.617 509.594 474.867 508.966 474.867C508.338 474.867 507.736 474.617 507.292 474.173C506.848 473.73 506.598 473.128 506.598 472.5C506.598 471.872 506.848 471.271 507.292 470.827C507.736 470.383 508.338 470.134 508.966 470.134ZM526.326 470.134C526.954 470.134 527.556 470.383 528 470.827C528.444 471.271 528.693 471.872 528.693 472.5C528.693 473.128 528.444 473.73 528 474.173C527.556 474.617 526.954 474.867 526.326 474.867C525.698 474.867 525.096 474.617 524.652 474.173C524.208 473.73 523.959 473.128 523.959 472.5C523.959 471.872 524.208 471.271 524.652 470.827C525.096 470.383 525.698 470.134 526.326 470.134ZM387.445 470.134C388.073 470.134 388.675 470.383 389.119 470.827C389.563 471.271 389.812 471.872 389.812 472.5C389.812 473.128 389.563 473.73 389.119 474.173C388.675 474.617 388.073 474.867 387.445 474.867C386.817 474.867 386.215 474.617 385.771 474.173C385.327 473.73 385.078 473.128 385.078 472.5C385.078 471.872 385.327 471.271 385.771 470.827C386.215 470.383 386.817 470.134 387.445 470.134ZM404.805 452.78C405.433 452.78 406.035 453.029 406.479 453.473C406.923 453.917 407.173 454.519 407.173 455.146C407.173 455.774 406.923 456.376 406.479 456.82C406.035 457.263 405.433 457.513 404.805 457.513C404.177 457.513 403.575 457.263 403.131 456.82C402.687 456.376 402.438 455.774 402.438 455.146C402.438 454.519 402.687 453.917 403.131 453.473C403.575 453.029 404.177 452.78 404.805 452.78ZM422.165 452.78C422.793 452.78 423.395 453.029 423.839 453.473C424.283 453.917 424.533 454.519 424.533 455.146C424.533 455.774 424.283 456.376 423.839 456.82C423.395 457.263 422.793 457.513 422.165 457.513C421.537 457.513 420.935 457.263 420.491 456.82C420.047 456.376 419.798 455.774 419.798 455.146C419.798 454.519 420.047 453.917 420.491 453.473C420.935 453.029 421.537 452.78 422.165 452.78ZM439.525 452.78C440.153 452.78 440.755 453.029 441.199 453.473C441.643 453.917 441.893 454.519 441.893 455.146C441.893 455.774 441.643 456.376 441.199 456.82C440.755 457.263 440.153 457.513 439.525 457.513C438.898 457.513 438.295 457.263 437.851 456.82C437.408 456.376 437.158 455.774 437.158 455.146C437.158 454.519 437.408 453.917 437.851 453.473C438.295 453.029 438.898 452.78 439.525 452.78ZM456.885 452.78C457.513 452.78 458.115 453.029 458.559 453.473C459.003 453.917 459.253 454.519 459.253 455.146C459.253 455.774 459.003 456.376 458.559 456.82C458.115 457.263 457.513 457.513 456.885 457.513C456.258 457.513 455.655 457.263 455.212 456.82C454.768 456.376 454.518 455.774 454.518 455.146C454.518 454.519 454.768 453.917 455.212 453.473C455.655 453.029 456.258 452.78 456.885 452.78ZM474.246 452.78C474.873 452.78 475.476 453.029 475.919 453.473C476.363 453.917 476.613 454.519 476.613 455.146C476.613 455.774 476.363 456.376 475.919 456.82C475.476 457.263 474.873 457.513 474.246 457.513C473.618 457.513 473.016 457.263 472.572 456.82C472.128 456.376 471.878 455.774 471.878 455.146C471.878 454.519 472.128 453.917 472.572 453.473C473.016 453.029 473.618 452.78 474.246 452.78ZM491.606 452.78C492.233 452.78 492.836 453.029 493.28 453.473C493.724 453.917 493.973 454.519 493.973 455.146C493.973 455.774 493.724 456.376 493.28 456.82C492.836 457.263 492.233 457.513 491.606 457.513C490.978 457.513 490.376 457.263 489.932 456.82C489.488 456.376 489.238 455.774 489.238 455.146C489.238 454.519 489.488 453.917 489.932 453.473C490.376 453.029 490.978 452.78 491.606 452.78ZM508.966 452.78C509.594 452.78 510.196 453.029 510.64 453.473C511.084 453.917 511.333 454.519 511.333 455.146C511.333 455.774 511.084 456.376 510.64 456.82C510.196 457.263 509.594 457.513 508.966 457.513C508.338 457.513 507.736 457.263 507.292 456.82C506.848 456.376 506.598 455.774 506.598 455.146C506.598 454.519 506.848 453.917 507.292 453.473C507.736 453.029 508.338 452.78 508.966 452.78ZM526.326 452.78C526.954 452.78 527.556 453.029 528 453.473C528.444 453.917 528.693 454.519 528.693 455.146C528.693 455.774 528.444 456.376 528 456.82C527.556 457.263 526.954 457.513 526.326 457.513C525.698 457.513 525.096 457.263 524.652 456.82C524.208 456.376 523.959 455.774 523.959 455.146C523.959 454.519 524.208 453.917 524.652 453.473C525.096 453.029 525.698 452.78 526.326 452.78ZM387.445 452.78C388.073 452.78 388.675 453.029 389.119 453.473C389.563 453.917 389.812 454.519 389.812 455.146C389.812 455.774 389.563 456.376 389.119 456.82C388.675 457.263 388.073 457.513 387.445 457.513C386.817 457.513 386.215 457.263 385.771 456.82C385.327 456.376 385.078 455.774 385.078 455.146C385.078 454.519 385.327 453.917 385.771 453.473C386.215 453.029 386.817 452.78 387.445 452.78Z" fill="#FF4D5A"/>
<g id="zigzag">
<path id="Vector" d="M15.4446 340.181L31.2951 324.336L47.1464 340.181L62.997 324.336L78.8483 340.181L94.6988 324.336" stroke="#FF4D5A" stroke-width="4"/>
<path id="Vector_2" d="M15.4448 354.379L31.2954 338.535L47.1467 354.379L62.9972 338.535L78.8485 354.379L94.6991 338.535" stroke="#FF4D5A" stroke-width="4"/>
<path id="Vector_3" d="M15.4448 368.578L31.2954 352.733L47.1467 368.578L62.9972 352.733L78.8485 368.578L94.6991 352.733" stroke="#FF4D5A" stroke-width="4"/>
<path id="Vector_4" d="M15.4448 382.777L31.2954 366.932L47.1467 382.777L62.9972 366.932L78.8485 382.777L94.6991 366.932" stroke="#FF4D5A" stroke-width="4"/>
</g>
<g id="two lines">
<line id="Line 4" x1="296.879" y1="97.5317" x2="423.01" y2="97.5317" stroke="#FF4D5A" stroke-width="4"/>
<line id="Line 5" x1="282.293" y1="111.76" x2="408.424" y2="111.76" stroke="#FF4D5A" stroke-width="3"/>
</g>
<path id="hook" d="M73.6837 493.368C50.9459 493.368 50.946 481.356 73.6837 481.356C96.4214 481.356 345.68 481.356 345.68 481.356" stroke="#FF4D5A" stroke-width="2"/>
</g>
<defs>
<linearGradient id="paint0_linear" x1="451.29" y1="226.989" x2="236.931" y2="470.02" gradientUnits="userSpaceOnUse">
<stop stop-color="#49F1C1"/>
<stop offset="1" stop-color="#42B091"/>
</linearGradient>
</defs>
</svg>
