<svg width="600" height="566" viewBox="0 0 600 566" fill="none" xmlns="http://www.w3.org/2000/svg">
<g class="pattern-bg">
<path class="blue-blob" fill-rule="evenodd" clip-rule="evenodd" d="M282.423 117.889C334.392 63.9217 428.223 159.836 505.962 269.402C583.701 378.968 636.705 431.03 568.807 501.54C500.91 572.05 355.985 600.086 282.423 501.54C208.863 402.995 230.456 171.855 282.423 117.889V117.889Z" fill="url(#paint0_linear)"/>
<path class="grey-blob" fill-rule="evenodd" clip-rule="evenodd" d="M12.8134 262.057C-31.8406 219.175 47.5221 141.747 138.18 77.599C228.837 13.4501 271.917 -30.288 330.259 25.7401C388.601 81.7674 411.799 201.357 330.259 262.058C248.719 322.759 57.4673 304.94 12.8134 262.058V262.057Z" fill="#EDEDED"/>
<path class="dots" fill-rule="evenodd" clip-rule="evenodd" d="M574.175 550.738C574.86 550.738 575.517 551.01 576.001 551.494C576.485 551.978 576.757 552.635 576.757 553.319C576.757 554.004 576.485 554.661 576.001 555.145C575.517 555.629 574.86 555.901 574.175 555.901C573.49 555.901 572.833 555.629 572.349 555.145C571.864 554.661 571.592 554.004 571.592 553.319C571.592 552.635 571.864 551.978 572.349 551.494C572.833 551.01 573.49 550.738 574.175 550.738ZM555.237 550.738C555.921 550.738 556.578 551.01 557.063 551.494C557.547 551.978 557.819 552.635 557.819 553.319C557.819 554.004 557.547 554.661 557.063 555.145C556.578 555.629 555.921 555.901 555.237 555.901C554.552 555.901 553.895 555.629 553.41 555.145C552.926 554.661 552.654 554.004 552.654 553.319C552.654 552.635 552.926 551.978 553.41 551.494C553.895 551.01 554.552 550.738 555.237 550.738ZM536.298 550.738C536.983 550.738 537.64 551.01 538.124 551.494C538.609 551.978 538.881 552.635 538.881 553.319C538.881 554.004 538.609 554.661 538.124 555.145C537.64 555.629 536.983 555.901 536.298 555.901C535.613 555.901 534.956 555.629 534.472 555.145C533.988 554.661 533.716 554.004 533.716 553.319C533.716 552.635 533.988 551.978 534.472 551.494C534.956 551.01 535.613 550.738 536.298 550.738ZM517.36 550.738C518.045 550.738 518.702 551.01 519.186 551.494C519.67 551.978 519.942 552.635 519.942 553.319C519.942 554.004 519.67 554.661 519.186 555.145C518.702 555.629 518.045 555.901 517.36 555.901C516.675 555.901 516.018 555.629 515.534 555.145C515.05 554.661 514.777 554.004 514.777 553.319C514.777 552.635 515.05 551.978 515.534 551.494C516.018 551.01 516.675 550.738 517.36 550.738ZM498.422 550.738C499.107 550.738 499.763 551.01 500.248 551.494C500.732 551.978 501.004 552.635 501.004 553.319C501.004 554.004 500.732 554.661 500.248 555.145C499.763 555.629 499.107 555.901 498.422 555.901C497.737 555.901 497.08 555.629 496.596 555.145C496.111 554.661 495.839 554.004 495.839 553.319C495.839 552.635 496.111 551.978 496.596 551.494C497.08 551.01 497.737 550.738 498.422 550.738ZM479.483 550.738C480.168 550.738 480.825 551.01 481.309 551.494C481.794 551.978 482.066 552.635 482.066 553.319C482.066 554.004 481.794 554.661 481.309 555.145C480.825 555.629 480.168 555.901 479.483 555.901C478.798 555.901 478.142 555.629 477.657 555.145C477.173 554.661 476.901 554.004 476.901 553.319C476.901 552.635 477.173 551.978 477.657 551.494C478.142 551.01 478.798 550.738 479.483 550.738ZM460.545 550.738C461.23 550.738 461.887 551.01 462.371 551.494C462.855 551.978 463.128 552.635 463.128 553.319C463.128 554.004 462.855 554.661 462.371 555.145C461.887 555.629 461.23 555.901 460.545 555.901C459.86 555.901 459.203 555.629 458.719 555.145C458.235 554.661 457.963 554.004 457.963 553.319C457.963 552.635 458.235 551.978 458.719 551.494C459.203 551.01 459.86 550.738 460.545 550.738ZM441.607 550.738C442.292 550.738 442.949 551.01 443.433 551.494C443.917 551.978 444.189 552.635 444.189 553.319C444.189 554.004 443.917 554.661 443.433 555.145C442.949 555.629 442.292 555.901 441.607 555.901C440.922 555.901 440.265 555.629 439.781 555.145C439.296 554.661 439.024 554.004 439.024 553.319C439.024 552.635 439.296 551.978 439.781 551.494C440.265 551.01 440.922 550.738 441.607 550.738ZM422.668 550.738C423.353 550.738 424.01 551.01 424.495 551.494C424.979 551.978 425.251 552.635 425.251 553.319C425.251 554.004 424.979 554.661 424.495 555.145C424.01 555.629 423.353 555.901 422.668 555.901C421.984 555.901 421.327 555.629 420.842 555.145C420.358 554.661 420.086 554.004 420.086 553.319C420.086 552.635 420.358 551.978 420.842 551.494C421.327 551.01 421.984 550.738 422.668 550.738ZM422.668 531.806C423.353 531.806 424.01 532.078 424.495 532.562C424.979 533.046 425.251 533.703 425.251 534.388C425.251 535.072 424.979 535.729 424.495 536.213C424.01 536.697 423.353 536.969 422.668 536.969C421.984 536.969 421.327 536.697 420.842 536.213C420.358 535.729 420.086 535.072 420.086 534.388C420.086 533.703 420.358 533.046 420.842 532.562C421.327 532.078 421.984 531.806 422.668 531.806ZM574.175 531.806C574.86 531.806 575.517 532.078 576.001 532.562C576.485 533.046 576.757 533.703 576.757 534.388C576.757 535.072 576.485 535.729 576.001 536.213C575.517 536.697 574.86 536.969 574.175 536.969C573.49 536.969 572.833 536.697 572.349 536.213C571.864 535.729 571.592 535.072 571.592 534.388C571.592 533.703 571.864 533.046 572.349 532.562C572.833 532.078 573.49 531.806 574.175 531.806ZM555.237 531.806C555.921 531.806 556.578 532.078 557.063 532.562C557.547 533.046 557.819 533.703 557.819 534.388C557.819 535.072 557.547 535.729 557.063 536.213C556.578 536.697 555.921 536.969 555.237 536.969C554.552 536.969 553.895 536.697 553.41 536.213C552.926 535.729 552.654 535.072 552.654 534.388C552.654 533.703 552.926 533.046 553.41 532.562C553.895 532.078 554.552 531.806 555.237 531.806ZM536.298 531.806C536.983 531.806 537.64 532.078 538.124 532.562C538.609 533.046 538.881 533.703 538.881 534.388C538.881 535.072 538.609 535.729 538.124 536.213C537.64 536.697 536.983 536.969 536.298 536.969C535.613 536.969 534.956 536.697 534.472 536.213C533.988 535.729 533.716 535.072 533.716 534.388C533.716 533.703 533.988 533.046 534.472 532.562C534.956 532.078 535.613 531.806 536.298 531.806ZM517.36 531.806C518.045 531.806 518.702 532.078 519.186 532.562C519.67 533.046 519.942 533.703 519.942 534.388C519.942 535.072 519.67 535.729 519.186 536.213C518.702 536.697 518.045 536.969 517.36 536.969C516.675 536.969 516.018 536.697 515.534 536.213C515.05 535.729 514.777 535.072 514.777 534.388C514.777 533.703 515.05 533.046 515.534 532.562C516.018 532.078 516.675 531.806 517.36 531.806ZM498.422 531.806C499.107 531.806 499.763 532.078 500.248 532.562C500.732 533.046 501.004 533.703 501.004 534.388C501.004 535.072 500.732 535.729 500.248 536.213C499.763 536.697 499.107 536.969 498.422 536.969C497.737 536.969 497.08 536.697 496.596 536.213C496.111 535.729 495.839 535.072 495.839 534.388C495.839 533.703 496.111 533.046 496.596 532.562C497.08 532.078 497.737 531.806 498.422 531.806ZM479.483 531.806C480.168 531.806 480.825 532.078 481.309 532.562C481.794 533.046 482.066 533.703 482.066 534.388C482.066 535.072 481.794 535.729 481.309 536.213C480.825 536.697 480.168 536.969 479.483 536.969C478.798 536.969 478.142 536.697 477.657 536.213C477.173 535.729 476.901 535.072 476.901 534.388C476.901 533.703 477.173 533.046 477.657 532.562C478.142 532.078 478.798 531.806 479.483 531.806ZM460.545 531.806C461.23 531.806 461.887 532.078 462.371 532.562C462.855 533.046 463.128 533.703 463.128 534.388C463.128 535.072 462.855 535.729 462.371 536.213C461.887 536.697 461.23 536.969 460.545 536.969C459.86 536.969 459.203 536.697 458.719 536.213C458.235 535.729 457.963 535.072 457.963 534.388C457.963 533.703 458.235 533.046 458.719 532.562C459.203 532.078 459.86 531.806 460.545 531.806ZM441.607 531.806C442.292 531.806 442.949 532.078 443.433 532.562C443.917 533.046 444.189 533.703 444.189 534.388C444.189 535.072 443.917 535.729 443.433 536.213C442.949 536.697 442.292 536.969 441.607 536.969C440.922 536.969 440.265 536.697 439.781 536.213C439.296 535.729 439.024 535.072 439.024 534.388C439.024 533.703 439.296 533.046 439.781 532.562C440.265 532.078 440.922 531.806 441.607 531.806ZM441.607 512.874C442.292 512.874 442.949 513.146 443.433 513.631C443.917 514.115 444.189 514.771 444.189 515.456C444.189 516.141 443.917 516.797 443.433 517.282C442.949 517.766 442.292 518.038 441.607 518.038C440.922 518.038 440.265 517.766 439.781 517.282C439.296 516.797 439.024 516.141 439.024 515.456C439.024 514.771 439.296 514.115 439.781 513.631C440.265 513.146 440.922 512.874 441.607 512.874ZM460.545 512.874C461.23 512.874 461.887 513.146 462.371 513.631C462.855 514.115 463.128 514.771 463.128 515.456C463.128 516.141 462.855 516.797 462.371 517.282C461.887 517.766 461.23 518.038 460.545 518.038C459.86 518.038 459.203 517.766 458.719 517.282C458.235 516.797 457.963 516.141 457.963 515.456C457.963 514.771 458.235 514.115 458.719 513.631C459.203 513.146 459.86 512.874 460.545 512.874ZM479.483 512.874C480.168 512.874 480.825 513.146 481.309 513.631C481.794 514.115 482.066 514.771 482.066 515.456C482.066 516.141 481.794 516.797 481.309 517.282C480.825 517.766 480.168 518.038 479.483 518.038C478.798 518.038 478.142 517.766 477.657 517.282C477.173 516.797 476.901 516.141 476.901 515.456C476.901 514.771 477.173 514.115 477.657 513.631C478.142 513.146 478.798 512.874 479.483 512.874ZM498.422 512.874C499.107 512.874 499.763 513.146 500.248 513.631C500.732 514.115 501.004 514.771 501.004 515.456C501.004 516.141 500.732 516.797 500.248 517.282C499.763 517.766 499.107 518.038 498.422 518.038C497.737 518.038 497.08 517.766 496.596 517.282C496.111 516.797 495.839 516.141 495.839 515.456C495.839 514.771 496.111 514.115 496.596 513.631C497.08 513.146 497.737 512.874 498.422 512.874ZM517.36 512.874C518.045 512.874 518.702 513.146 519.186 513.631C519.67 514.115 519.942 514.771 519.942 515.456C519.942 516.141 519.67 516.797 519.186 517.282C518.702 517.766 518.045 518.038 517.36 518.038C516.675 518.038 516.018 517.766 515.534 517.282C515.05 516.797 514.777 516.141 514.777 515.456C514.777 514.771 515.05 514.115 515.534 513.631C516.018 513.146 516.675 512.874 517.36 512.874ZM536.298 512.874C536.983 512.874 537.64 513.146 538.124 513.631C538.609 514.115 538.881 514.771 538.881 515.456C538.881 516.141 538.609 516.797 538.124 517.282C537.64 517.766 536.983 518.038 536.298 518.038C535.613 518.038 534.956 517.766 534.472 517.282C533.988 516.797 533.716 516.141 533.716 515.456C533.716 514.771 533.988 514.115 534.472 513.631C534.956 513.146 535.613 512.874 536.298 512.874ZM555.237 512.874C555.921 512.874 556.578 513.146 557.063 513.631C557.547 514.115 557.819 514.771 557.819 515.456C557.819 516.141 557.547 516.797 557.063 517.282C556.578 517.766 555.921 518.038 555.237 518.038C554.552 518.038 553.895 517.766 553.41 517.282C552.926 516.797 552.654 516.141 552.654 515.456C552.654 514.771 552.926 514.115 553.41 513.631C553.895 513.146 554.552 512.874 555.237 512.874ZM574.175 512.874C574.86 512.874 575.517 513.146 576.001 513.631C576.485 514.115 576.757 514.771 576.757 515.456C576.757 516.141 576.485 516.797 576.001 517.282C575.517 517.766 574.86 518.038 574.175 518.038C573.49 518.038 572.833 517.766 572.349 517.282C571.864 516.797 571.592 516.141 571.592 515.456C571.592 514.771 571.864 514.115 572.349 513.631C572.833 513.146 573.49 512.874 574.175 512.874ZM422.668 512.874C423.353 512.874 424.01 513.146 424.495 513.631C424.979 514.115 425.251 514.771 425.251 515.456C425.251 516.141 424.979 516.797 424.495 517.282C424.01 517.766 423.353 518.038 422.668 518.038C421.984 518.038 421.327 517.766 420.842 517.282C420.358 516.797 420.086 516.141 420.086 515.456C420.086 514.771 420.358 514.115 420.842 513.631C421.327 513.146 421.984 512.874 422.668 512.874ZM441.607 493.943C442.292 493.943 442.949 494.215 443.433 494.699C443.917 495.183 444.189 495.84 444.189 496.524C444.189 497.209 443.917 497.866 443.433 498.35C442.949 498.834 442.292 499.106 441.607 499.106C440.922 499.106 440.265 498.834 439.781 498.35C439.296 497.866 439.024 497.209 439.024 496.524C439.024 495.84 439.296 495.183 439.781 494.699C440.265 494.215 440.922 493.943 441.607 493.943ZM460.545 493.943C461.23 493.943 461.887 494.215 462.371 494.699C462.855 495.183 463.128 495.84 463.128 496.524C463.128 497.209 462.855 497.866 462.371 498.35C461.887 498.834 461.23 499.106 460.545 499.106C459.86 499.106 459.203 498.834 458.719 498.35C458.235 497.866 457.963 497.209 457.963 496.524C457.963 495.84 458.235 495.183 458.719 494.699C459.203 494.215 459.86 493.943 460.545 493.943ZM479.483 493.943C480.168 493.943 480.825 494.215 481.309 494.699C481.794 495.183 482.066 495.84 482.066 496.524C482.066 497.209 481.794 497.866 481.309 498.35C480.825 498.834 480.168 499.106 479.483 499.106C478.798 499.106 478.142 498.834 477.657 498.35C477.173 497.866 476.901 497.209 476.901 496.524C476.901 495.84 477.173 495.183 477.657 494.699C478.142 494.215 478.798 493.943 479.483 493.943ZM498.422 493.943C499.107 493.943 499.763 494.215 500.248 494.699C500.732 495.183 501.004 495.84 501.004 496.524C501.004 497.209 500.732 497.866 500.248 498.35C499.763 498.834 499.107 499.106 498.422 499.106C497.737 499.106 497.08 498.834 496.596 498.35C496.111 497.866 495.839 497.209 495.839 496.524C495.839 495.84 496.111 495.183 496.596 494.699C497.08 494.215 497.737 493.943 498.422 493.943ZM517.36 493.943C518.045 493.943 518.702 494.215 519.186 494.699C519.67 495.183 519.942 495.84 519.942 496.524C519.942 497.209 519.67 497.866 519.186 498.35C518.702 498.834 518.045 499.106 517.36 499.106C516.675 499.106 516.018 498.834 515.534 498.35C515.05 497.866 514.777 497.209 514.777 496.524C514.777 495.84 515.05 495.183 515.534 494.699C516.018 494.215 516.675 493.943 517.36 493.943ZM536.298 493.943C536.983 493.943 537.64 494.215 538.124 494.699C538.609 495.183 538.881 495.84 538.881 496.524C538.881 497.209 538.609 497.866 538.124 498.35C537.64 498.834 536.983 499.106 536.298 499.106C535.613 499.106 534.956 498.834 534.472 498.35C533.988 497.866 533.716 497.209 533.716 496.524C533.716 495.84 533.988 495.183 534.472 494.699C534.956 494.215 535.613 493.943 536.298 493.943ZM555.237 493.943C555.921 493.943 556.578 494.215 557.063 494.699C557.547 495.183 557.819 495.84 557.819 496.524C557.819 497.209 557.547 497.866 557.063 498.35C556.578 498.834 555.921 499.106 555.237 499.106C554.552 499.106 553.895 498.834 553.41 498.35C552.926 497.866 552.654 497.209 552.654 496.524C552.654 495.84 552.926 495.183 553.41 494.699C553.895 494.215 554.552 493.943 555.237 493.943ZM574.175 493.943C574.86 493.943 575.517 494.215 576.001 494.699C576.485 495.183 576.757 495.84 576.757 496.524C576.757 497.209 576.485 497.866 576.001 498.35C575.517 498.834 574.86 499.106 574.175 499.106C573.49 499.106 572.833 498.834 572.349 498.35C571.864 497.866 571.592 497.209 571.592 496.524C571.592 495.84 571.864 495.183 572.349 494.699C572.833 494.215 573.49 493.943 574.175 493.943ZM422.668 493.943C423.353 493.943 424.01 494.215 424.495 494.699C424.979 495.183 425.251 495.84 425.251 496.524C425.251 497.209 424.979 497.866 424.495 498.35C424.01 498.834 423.353 499.106 422.668 499.106C421.984 499.106 421.327 498.834 420.842 498.35C420.358 497.866 420.086 497.209 420.086 496.524C420.086 495.84 420.358 495.183 420.842 494.699C421.327 494.215 421.984 493.943 422.668 493.943Z" fill="#FF4D5A"/>
<g class="zigzag">
<path  d="M16.8486 371.108L34.1402 353.822L51.4326 371.108L68.7241 353.822L86.0165 371.108L103.308 353.822" stroke="#FF4D5A" stroke-width="4"/>
<path d="M16.8486 386.597L34.1402 369.312L51.4325 386.597L68.7241 369.312L86.0165 386.597L103.308 369.312" stroke="#FF4D5A" stroke-width="4"/>
<path d="M16.8486 402.087L34.1402 384.801L51.4325 402.087L68.7241 384.801L86.0165 402.087L103.308 384.801" stroke="#FF4D5A" stroke-width="4"/>
<path d="M16.8486 417.576L34.1402 400.291L51.4325 417.576L68.7241 400.291L86.0165 417.576L103.308 400.291" stroke="#FF4D5A" stroke-width="4"/>
</g>
<g class="two lines">
<line x1="321.997" y1="85.0515" x2="459.594" y2="85.0515" stroke="#FF4D5A" stroke-width="4"/>
<line x1="306.084" y1="100.528" x2="443.682" y2="100.528" stroke="#FF4D5A" stroke-width="3"/>
</g>
</g>
<defs>
<linearGradient x1="492.316" y1="247.625" x2="258.469" y2="512.75" gradientUnits="userSpaceOnUse">
<stop stop-color="#49F1C1"/>
<stop offset="1" stop-color="#42B091"/>
</linearGradient>
</defs>
</svg>
