<svg width="20" height="32" viewBox="0 0 20 32" fill="none" xmlns="http://www.w3.org/2000/svg">
<path d="M19.4831 14.8658L0.542017 0.0717559C0.492523 0.0327906 0.433042 0.00857541 0.370407 0.00189098C0.307771 -0.00479345 0.24452 0.00632405 0.187918 0.0339669C0.131316 0.0616098 0.0836588 0.104657 0.050419 0.158164C0.0171792 0.211672 -0.000295008 0.273469 3.76815e-06 0.33646V3.58434C3.76815e-06 3.79022 0.0966421 3.9877 0.256305 4.11375L15.3823 15.9246L0.256305 27.7354C0.0924404 27.8615 3.76815e-06 28.059 3.76815e-06 28.2649V31.5127C3.76815e-06 31.7942 0.323531 31.9497 0.542017 31.7774L19.4831 16.9834C19.6441 16.8578 19.7743 16.6972 19.8639 16.5137C19.9534 16.3303 20 16.1288 20 15.9246C20 15.7204 19.9534 15.5189 19.8639 15.3355C19.7743 15.152 19.6441 14.9914 19.4831 14.8658Z" fill="#1F2833"/>
</svg>
