<svg width="100" height="100" viewBox="0 0 100 100" fill="none" xmlns="http://www.w3.org/2000/svg">
<circle cx="50" cy="50" r="50" fill="#49F1C1"/>
<path d="M37.3525 44.7549L39.3838 38.8906H40.4092L37.7725 46H36.9424L34.3105 38.8906H35.3311L37.3525 44.7549ZM45.3721 46H44.4346V38.8906H45.3721V46ZM54.1094 42.7139H51.0283V45.2334H54.6074V46H50.0908V38.8906H54.5586V39.6621H51.0283V41.9473H54.1094V42.7139ZM60.3076 43.7588L60.4443 44.6963L60.6445 43.8516L62.0508 38.8906H62.8418L64.2139 43.8516L64.4092 44.7109L64.5605 43.7539L65.6641 38.8906H66.6064L64.8828 46H64.0283L62.5635 40.8193L62.4512 40.2773L62.3389 40.8193L60.8203 46H59.9658L58.2471 38.8906H59.1846L60.3076 43.7588ZM21.8223 58.2168V61H20.8848V53.8906H23.5068C24.2848 53.8906 24.8936 54.0892 25.333 54.4863C25.7757 54.8835 25.9971 55.4092 25.9971 56.0635C25.9971 56.7536 25.7806 57.2858 25.3477 57.6602C24.918 58.0312 24.3011 58.2168 23.4971 58.2168H21.8223ZM21.8223 57.4502H23.5068C24.0081 57.4502 24.3923 57.333 24.6592 57.0986C24.9261 56.861 25.0596 56.5192 25.0596 56.0732C25.0596 55.6501 24.9261 55.3115 24.6592 55.0576C24.3923 54.8037 24.026 54.6719 23.5605 54.6621H21.8223V57.4502ZM32.8008 58.124H31.1309V61H30.1885V53.8906H32.542C33.3428 53.8906 33.958 54.0729 34.3877 54.4375C34.8206 54.8021 35.0371 55.3327 35.0371 56.0293C35.0371 56.472 34.9167 56.8577 34.6758 57.1865C34.4382 57.5153 34.1061 57.7611 33.6797 57.9238L35.3496 60.9414V61H34.3438L32.8008 58.124ZM31.1309 57.3574H32.5713C33.0368 57.3574 33.4062 57.237 33.6797 56.9961C33.9564 56.7552 34.0947 56.4329 34.0947 56.0293C34.0947 55.5898 33.9629 55.2529 33.6992 55.0186C33.4388 54.7842 33.0612 54.6654 32.5664 54.6621H31.1309V57.3574ZM44.8242 57.6748C44.8242 58.3714 44.707 58.9801 44.4727 59.501C44.2383 60.0186 43.9062 60.4141 43.4766 60.6875C43.0469 60.9609 42.5456 61.0977 41.9727 61.0977C41.4128 61.0977 40.9163 60.9609 40.4834 60.6875C40.0505 60.4108 39.7135 60.0186 39.4727 59.5107C39.235 58.9997 39.113 58.4089 39.1064 57.7383V57.2256C39.1064 56.542 39.2253 55.9382 39.4629 55.4141C39.7005 54.89 40.0358 54.4896 40.4688 54.2129C40.9049 53.9329 41.403 53.793 41.9629 53.793C42.5326 53.793 43.0339 53.9313 43.4668 54.208C43.903 54.4814 44.2383 54.8802 44.4727 55.4043C44.707 55.9251 44.8242 56.5322 44.8242 57.2256V57.6748ZM43.8916 57.2158C43.8916 56.3727 43.7223 55.7266 43.3838 55.2773C43.0452 54.8249 42.5716 54.5986 41.9629 54.5986C41.3704 54.5986 40.9033 54.8249 40.5615 55.2773C40.223 55.7266 40.0488 56.3516 40.0391 57.1523V57.6748C40.0391 58.4919 40.21 59.1348 40.5518 59.6035C40.8968 60.069 41.3704 60.3018 41.9727 60.3018C42.5781 60.3018 43.0469 60.082 43.3789 59.6426C43.7109 59.1999 43.8818 58.5667 43.8916 57.7432V57.2158ZM52.209 53.8906H53.1514V58.9248C53.1514 59.6051 52.9463 60.1374 52.5361 60.5215C52.1292 60.9056 51.5856 61.0977 50.9053 61.0977C50.1989 61.0977 49.6488 60.917 49.2549 60.5557C48.861 60.1943 48.6641 59.6882 48.6641 59.0371H49.6016C49.6016 59.444 49.7122 59.7614 49.9336 59.9893C50.1582 60.2171 50.4821 60.3311 50.9053 60.3311C51.2926 60.3311 51.6051 60.209 51.8428 59.9648C52.0837 59.7207 52.2057 59.3789 52.209 58.9395V53.8906ZM61.7666 57.7139H58.6855V60.2334H62.2646V61H57.748V53.8906H62.2158V54.6621H58.6855V56.9473H61.7666V57.7139ZM71.6611 58.7441C71.5732 59.4961 71.2949 60.0771 70.8262 60.4873C70.3607 60.8942 69.7406 61.0977 68.9658 61.0977C68.126 61.0977 67.4521 60.7965 66.9443 60.1943C66.4398 59.5921 66.1875 58.7865 66.1875 57.7773V57.0938C66.1875 56.4329 66.3047 55.8519 66.5391 55.3506C66.7767 54.8493 67.112 54.4652 67.5449 54.1982C67.9779 53.9281 68.4792 53.793 69.0488 53.793C69.804 53.793 70.4095 54.0046 70.8652 54.4277C71.321 54.8477 71.5863 55.4303 71.6611 56.1758H70.7188C70.6374 55.6094 70.46 55.1992 70.1865 54.9453C69.9163 54.6914 69.5371 54.5645 69.0488 54.5645C68.4499 54.5645 67.9795 54.7858 67.6377 55.2285C67.2992 55.6712 67.1299 56.3011 67.1299 57.1182V57.8066C67.1299 58.5781 67.291 59.1917 67.6133 59.6475C67.9355 60.1032 68.3864 60.3311 68.9658 60.3311C69.4867 60.3311 69.8854 60.2139 70.1621 59.9795C70.4421 59.7419 70.6276 59.3301 70.7188 58.7441H71.6611ZM80.7109 54.6621H78.4258V61H77.4932V54.6621H75.2129V53.8906H80.7109V54.6621Z" fill="black"/>
</svg>
